<?xml version="1.0" encoding="utf-8"?>
<!-- Generator: Adobe Illustrator 16.0.0, SVG Export Plug-In . SVG Version: 6.00 Build 0)  -->
<!DOCTYPE svg PUBLIC "-//W3C//DTD SVG 1.1//EN" "http://www.w3.org/Graphics/SVG/1.1/DTD/svg11.dtd">
<svg version="1.1" id="Layer_1" xmlns="http://www.w3.org/2000/svg" xmlns:xlink="http://www.w3.org/1999/xlink" x="0px" y="0px"
	 width="500px" height="400px" viewBox="0 0 500 400" style="enable-background:new 0 0 500 400;" xml:space="preserve">
<style type="text/css">
<![CDATA[
	.st0{opacity:0.4;fill:#A1FFED;}
	.st1{fill:none;stroke:#FFE33D;stroke-width:3.417;stroke-miterlimit:10;}
	.st2{opacity:0.3;fill:#FFE33D;}
	.st3{fill:none;stroke:#FF8683;stroke-width:4.2952;stroke-miterlimit:10;}
	.st4{fill:#212121;}
	.st5{fill:none;stroke:#64A7CC;stroke-width:4.1567;stroke-miterlimit:10;}
	.st6{fill:#FFFFFF;stroke:#FFBC00;stroke-width:3.5706;stroke-miterlimit:10;}
	.st7{fill:#FFFFFF;stroke:#FF8683;stroke-width:4.2952;stroke-miterlimit:10;}
	.st8{opacity:0.2;}
	.st9{fill:#FF8683;}
	.st10{fill:#FFFFFF;stroke:#64A7CC;stroke-width:4.1567;stroke-miterlimit:10;}
	.st11{fill:#FFFFFF;stroke:#63C7CC;stroke-width:4.744;stroke-miterlimit:10;}
	.st12{fill:#FFFFFF;stroke:#FFE33D;stroke-width:3.417;stroke-miterlimit:10;}
]]>
</style>
<g>
	<g>
		<circle class="st2" cx="233.9" cy="209.1" r="129.2"/>
		<g>
			<g class="st8">
				<circle class="st4" cx="338.4" cy="126.7" r="66.4"/>
				<g id="_x35__17_">
					<path class="st4" d="M338.4,72.7c-29.6,0-53.7,24.1-53.7,54c0,29.8,24,54,53.7,54c29.6,0,53.7-24.1,53.7-54
						C392.1,96.8,368,72.7,338.4,72.7 M352.4,96.5c5.4,0,9.7,4.4,9.7,9.7c0,1.8-1.5,3.2-3.2,3.2c-1.8,0-3.2-1.5-3.2-3.2
						c0-1.8-1.5-3.2-3.2-3.2c-1.8,0-3.2,1.5-3.2,3.2c0,1.8-1.5,3.2-3.2,3.2c-1.8,0-3.2-1.5-3.2-3.2
						C342.7,100.8,347.1,96.5,352.4,96.5 M324.4,96.5c5.4,0,9.7,4.4,9.7,9.7c0,1.8-1.5,3.2-3.2,3.2c-1.8,0-3.2-1.5-3.2-3.2
						c0-1.8-1.5-3.2-3.2-3.2c-1.8,0-3.2,1.5-3.2,3.2c0,1.8-1.5,3.2-3.2,3.2c-1.8,0-3.2-1.5-3.2-3.2
						C314.7,100.8,319.1,96.5,324.4,96.5 M338.4,159.2c-18.9,0-34.3-15.4-34.3-34.5h68.4C372.7,143.8,357.3,159.2,338.4,159.2"/>
				</g>
			</g>
			<g>
				<circle class="st11" cx="328.6" cy="119.3" r="63.1"/>
				<path id="_x34__3_" class="st11" d="M328.6,67.8c-28.1,0-51,22.8-51,50.9c0,28.1,22.8,50.9,51,50.9c28.1,0,50.9-22.8,50.9-50.9
					C379.6,90.6,356.7,67.8,328.6,67.8 M340.9,96.6c3.3,0,6.1,2.8,6.1,6.1c0,3.4-2.8,6.1-6.1,6.1c-3.3,0-6.1-2.8-6.1-6.1
					C334.8,99.3,337.5,96.6,340.9,96.6 M315.5,96.6c3.3,0,6.1,2.8,6.1,6.1c0,3.4-2.8,6.1-6.1,6.1c-3.4,0-6.1-2.8-6.1-6.1
					C309.4,99.3,312,96.6,315.5,96.6 M363.3,124.1c-3.4,16.4-18,28.3-34.7,28.3c-16.5,0-30.7-11.2-34.5-27.2
					c-0.4-1.7,0.7-3.3,2.3-3.7c1.6-0.4,3.3,0.7,3.7,2.3c3.1,13.2,14.9,22.6,28.5,22.6c13.9,0,26-9.8,28.7-23.4
					c0.4-1.7,2-2.7,3.6-2.4C362.6,120.8,363.7,122.5,363.3,124.1"/>
			</g>
		</g>
		<g>
			<g class="st8">
				<circle class="st4" cx="105.1" cy="203.9" r="50.2"/>
				<g id="_x35__16_">
					<path class="st4" d="M105.1,163c-22.4,0-40.6,18.3-40.6,40.8c0,22.5,18.2,40.8,40.6,40.8c22.4,0,40.6-18.3,40.6-40.8
						C145.7,181.3,127.5,163,105.1,163 M115.6,181c4.1,0,7.3,3.3,7.3,7.4c0,1.3-1.1,2.4-2.4,2.4c-1.3,0-2.4-1.1-2.4-2.4
						c0-1.3-1.1-2.5-2.4-2.5c-1.3,0-2.4,1.1-2.4,2.5c0,1.3-1.1,2.4-2.4,2.4c-1.3,0-2.4-1.1-2.4-2.4C108.3,184.3,111.6,181,115.6,181
						 M94.4,181c4.1,0,7.3,3.3,7.3,7.4c0,1.3-1.1,2.4-2.4,2.4c-1.3,0-2.4-1.1-2.4-2.4c0-1.3-1.1-2.5-2.4-2.5c-1.3,0-2.4,1.1-2.4,2.5
						c0,1.3-1.1,2.4-2.4,2.4c-1.3,0-2.4-1.1-2.4-2.4C87.1,184.3,90.4,181,94.4,181 M105.1,228.5c-14.3,0-25.9-11.7-25.9-26.1h51.8
						C131,216.8,119.4,228.5,105.1,228.5"/>
				</g>
			</g>
			<g>
				<circle class="st6" cx="99.4" cy="198.2" r="46.9"/>
				<path id="_x32__3_" class="st6" d="M99,160.5c-20.9,0-37.9,16.9-37.9,37.9c0,20.9,16.9,37.9,37.9,37.9
					c20.9,0,37.9-16.9,37.9-37.9C136.9,177.4,119.9,160.5,99,160.5 M108.2,181.9c2.5,0,4.5,2.1,4.5,4.5c0,2.5-2.1,4.5-4.5,4.5
					c-2.5,0-4.5-2.1-4.5-4.5C103.6,183.9,105.6,181.9,108.2,181.9 M89.2,181.9c2.5,0,4.5,2.1,4.5,4.5c0,2.5-2.1,4.5-4.5,4.5
					c-2.5,0-4.5-2.1-4.5-4.5C84.7,183.9,86.7,181.9,89.2,181.9 M118.7,212.9c-0.9,0.9-2.3,1-3.2,0.2c-4.5-4.1-10.3-6.3-16.4-6.3
					c-6.1,0-12,2.3-16.5,6.4c-0.4,0.4-1,0.6-1.5,0.6c-0.6,0-1.2-0.3-1.7-0.8c-0.9-0.9-0.8-2.4,0.2-3.2c5.4-4.9,12.3-7.5,19.5-7.5
					c7.2,0,14.1,2.7,19.5,7.5C119.5,210.6,119.6,212,118.7,212.9"/>
			</g>
		</g>
		<g>
			<g class="st8">
				<ellipse class="st4" cx="197.7" cy="322.2" rx="55.2" ry="55.4"/>
				<g id="_x35__15_">
					<path class="st4" d="M197.7,277.2c-24.6,0-44.6,20.1-44.6,45c0,24.8,20,45,44.6,45c24.6,0,44.6-20.1,44.6-45
						C242.3,297.3,222.3,277.2,197.7,277.2 M209.3,297c4.5,0,8,3.7,8,8.1c0,1.5-1.2,2.7-2.7,2.7c-1.5,0-2.7-1.2-2.7-2.7
						c0-1.5-1.2-2.7-2.7-2.7c-1.5,0-2.7,1.2-2.7,2.7c0,1.5-1.2,2.7-2.7,2.7c-1.5,0-2.7-1.2-2.7-2.7C201.2,300.7,204.9,297,209.3,297
						 M186,297c4.5,0,8,3.7,8,8.1c0,1.5-1.2,2.7-2.7,2.7c-1.5,0-2.7-1.2-2.7-2.7c0-1.5-1.2-2.7-2.7-2.7c-1.5,0-2.7,1.2-2.7,2.7
						c0,1.5-1.2,2.7-2.7,2.7c-1.5,0-2.7-1.2-2.7-2.7C177.9,300.7,181.6,297,186,297 M197.7,349.4c-15.8,0-28.5-12.9-28.5-28.8h56.9
						C226.2,336.5,213.4,349.4,197.7,349.4"/>
				</g>
			</g>
			<g>
				<ellipse class="st10" cx="187.9" cy="312.3" rx="55.2" ry="55.4"/>
				<g id="_x35__14_">
					<path class="st5" d="M187.9,267.3c-24.6,0-44.6,20.1-44.6,45c0,24.8,20,45,44.6,45c24.6,0,44.6-20.1,44.6-45
						C232.6,287.4,212.6,267.3,187.9,267.3 M199.6,287.1c4.5,0,8,3.7,8,8.1c0,1.5-1.2,2.7-2.7,2.7c-1.5,0-2.7-1.2-2.7-2.7
						c0-1.5-1.2-2.7-2.7-2.7c-1.5,0-2.7,1.2-2.7,2.7c0,1.5-1.2,2.7-2.7,2.7c-1.5,0-2.7-1.2-2.7-2.7
						C191.5,290.8,195.2,287.1,199.6,287.1 M176.3,287.1c4.5,0,8,3.7,8,8.1c0,1.5-1.2,2.7-2.7,2.7c-1.5,0-2.7-1.2-2.7-2.7
						c0-1.5-1.2-2.7-2.7-2.7c-1.5,0-2.7,1.2-2.7,2.7c0,1.5-1.2,2.7-2.7,2.7c-1.5,0-2.7-1.2-2.7-2.7
						C168.2,290.8,171.9,287.1,176.3,287.1 M187.9,339.5c-15.8,0-28.5-12.9-28.5-28.8h56.9C216.5,326.6,203.7,339.5,187.9,339.5"/>
				</g>
			</g>
		</g>
		<g>
			<g class="st8">
				<circle class="st4" cx="339.1" cy="273.4" r="47.9"/>
				<g id="_x35__13_">
					<path class="st4" d="M339.1,234.4c-21.4,0-38.8,17.4-38.8,39c0,21.5,17.3,39,38.8,39c21.4,0,38.8-17.4,38.8-39
						C377.9,251.9,360.5,234.4,339.1,234.4 M349.2,251.6c3.9,0,7,3.2,7,7c0,1.3-1.1,2.3-2.3,2.3c-1.3,0-2.3-1.1-2.3-2.3
						c0-1.3-1.1-2.3-2.3-2.3c-1.3,0-2.3,1.1-2.3,2.3c0,1.3-1.1,2.3-2.3,2.3c-1.3,0-2.3-1.1-2.3-2.3
						C342.2,254.8,345.4,251.6,349.2,251.6 M329,251.6c3.9,0,7,3.2,7,7c0,1.3-1.1,2.3-2.3,2.3c-1.3,0-2.3-1.1-2.3-2.3
						c0-1.3-1.1-2.3-2.3-2.3c-1.3,0-2.3,1.1-2.3,2.3c0,1.3-1.1,2.3-2.3,2.3c-1.3,0-2.3-1.1-2.3-2.3C322,254.8,325.2,251.6,329,251.6
						 M339.1,296.9c-13.7,0-24.8-11.1-24.8-24.9h49.5C363.9,285.8,352.8,296.9,339.1,296.9"/>
				</g>
			</g>
			<g>
				<path class="st12" d="M378,266.6c0,24.8-20.1,45-45,45c-24.8,0-45-20.1-45-45c0-24.8,20.1-45,45-45
					C357.8,221.6,378,241.8,378,266.6z"/>
				<path id="_x33__3_" class="st1" d="M333,230.3c-20,0-36.3,16.2-36.3,36.3c0,20,16.2,36.3,36.3,36.3c20,0,36.3-16.2,36.3-36.3
					C369.3,246.5,353,230.3,333,230.3 M342.1,250.8c2.4,0,4.4,2,4.4,4.4c0,2.4-2,4.4-4.4,4.4c-2.4,0-4.4-2-4.4-4.4
					C337.7,252.8,339.7,250.8,342.1,250.8 M323.9,250.8c2.4,0,4.4,2,4.4,4.4c0,2.4-2,4.4-4.4,4.4c-2.4,0-4.4-2-4.4-4.4
					C319.6,252.8,321.5,250.8,323.9,250.8 M345.1,280.1h-24.2c-1.2,0-2.2-1-2.2-2.2c0-1.2,1-2.2,2.2-2.2h24.2c1.2,0,2.2,1,2.2,2.2
					C347.3,279.1,346.3,280.1,345.1,280.1"/>
			</g>
		</g>
		<g class="st8">
			<ellipse class="st4" cx="188.6" cy="112" rx="42.3" ry="42.4"/>
			<g id="_x35__12_">
				<path class="st4" d="M188.6,77.5c-18.8,0-34.2,15.4-34.2,34.5c0,19,15.3,34.5,34.2,34.5c18.8,0,34.2-15.4,34.2-34.5
					C222.7,92.9,207.4,77.5,188.6,77.5 M197.5,92.7c3.4,0,6.1,2.8,6.1,6.2c0,1.1-0.9,2.1-2.1,2.1c-1.1,0-2-0.9-2-2.1
					c0-1.1-0.9-2.1-2.1-2.1c-1.1,0-2,0.9-2,2.1c0,1.1-0.9,2.1-2.1,2.1c-1.1,0-2.1-0.9-2.1-2.1C191.3,95.5,194.1,92.7,197.5,92.7
					 M179.6,92.7c3.4,0,6.1,2.8,6.1,6.2c0,1.1-0.9,2.1-2,2.1c-1.1,0-2.1-0.9-2.1-2.1c0-1.1-0.9-2.1-2.1-2.1c-1.1,0-2,0.9-2,2.1
					c0,1.1-0.9,2.1-2.1,2.1c-1.1,0-2.1-0.9-2.1-2.1C173.5,95.5,176.3,92.7,179.6,92.7 M188.6,132.8c-12.1,0-21.8-9.9-21.8-22h43.6
					C210.4,122.9,200.6,132.8,188.6,132.8"/>
			</g>
		</g>
		<g>
			<path class="st7" d="M222.6,105.7c0,23.5-19.1,42.6-42.6,42.6c-23.5,0-42.6-19.1-42.6-42.6c0-23.5,19.1-42.6,42.6-42.6
				C203.5,63.1,222.6,82.1,222.6,105.7z"/>
			<circle class="st3" cx="180" cy="105.7" r="33.5"/>
			<path class="st9" d="M194.4,121.1c-0.7,0.8-1.8,0.9-2.5,0.1c-3.5-3.7-8.1-5.8-12.9-5.8c-4.8,0-9.4,2.1-13,5.9
				c-0.3,0.3-0.8,0.5-1.2,0.5c-0.5,0-1-0.2-1.3-0.7c-0.7-0.8-0.6-2.2,0.1-2.9c4.2-4.5,9.7-6.9,15.4-6.9c5.7,0,11.1,2.4,15.3,6.9
				C195,118.9,195.1,120.2,194.4,121.1"/>
			<path class="st9" d="M163.2,106.9c0,1.3-1,2.3-2.3,2.3c-1.3,0-2.3-1-2.3-2.3c0-1.3,1.1-7,2.4-7.1
				C161.9,99.8,163.2,105.7,163.2,106.9z"/>
		</g>
		<path class="st7" d="M192.6,87.6c3.3,0,6.1,2.8,6.1,6.1c0,3.4-2.8,6.1-6.1,6.1c-3.3,0-6.1-2.8-6.1-6.1
			C186.4,90.3,189.1,87.6,192.6,87.6"/>
		<path class="st7" d="M167.1,87.6c3.3,0,6.1,2.8,6.1,6.1c0,3.4-2.8,6.1-6.1,6.1c-3.4,0-6.1-2.8-6.1-6.1
			C161,90.3,163.7,87.6,167.1,87.6"/>
	</g>
	<polygon class="st0" points="47.1,116.2 51.3,124.8 60.9,126.2 54,132.9 55.6,142.4 47.1,137.9 38.6,142.4 40.2,132.9 33.3,126.2 
		42.8,124.8 	"/>
	<polygon class="st0" points="411.1,223.1 415.3,231.7 424.8,233.1 417.9,239.8 419.6,249.3 411.1,244.8 402.6,249.3 404.2,239.8 
		397.3,233.1 406.8,231.7 	"/>
	<polygon class="st0" points="458.6,54.7 462.9,63.3 472.4,64.7 465.5,71.4 467.1,80.9 458.6,76.4 450.1,80.9 451.7,71.4 
		444.9,64.7 454.4,63.3 	"/>
	<polygon class="st0" points="272.1,11.6 276.3,20.2 285.8,21.6 278.9,28.3 280.6,37.8 272.1,33.3 263.5,37.8 265.2,28.3 
		258.3,21.6 267.8,20.2 	"/>
	<polygon class="st0" points="90.9,308.3 95.1,316.9 104.7,318.3 97.8,325 99.4,334.5 90.9,330 82.4,334.5 84,325 77.1,318.3 
		86.6,316.9 	"/>
</g>
</svg>
