<?xml version="1.0" encoding="utf-8"?>
<!-- Generator: Adobe Illustrator 16.0.0, SVG Export Plug-In . SVG Version: 6.00 Build 0)  -->
<!DOCTYPE svg PUBLIC "-//W3C//DTD SVG 1.1//EN" "http://www.w3.org/Graphics/SVG/1.1/DTD/svg11.dtd">
<svg version="1.1" id="Layer_1" xmlns="http://www.w3.org/2000/svg" xmlns:xlink="http://www.w3.org/1999/xlink" x="0px" y="0px"
	 width="800px" height="622px" viewBox="0 136.5 800 622" enable-background="new 0 136.5 800 622" xml:space="preserve">
<g id="Background">
	<rect y="136.5" fill="#FFFFFF" width="800" height="622"/>
</g>
<g id="Objects">
	<g>
		<path fill="#BBDEFB" d="M713.6,418.9H651.4c-4.5,0-8.801-2-11.801-5.4l0,0c-4.8-5.6-7.8-13.4-7.8-22c0-0.1,0-0.2,0-0.3
			c0.101-14.4,12-26,26.4-26h28c15.6,0,28.2-13.4,28.2-30c0-16.6-12.601-30-28.2-30H630c-7.3,0-13.9-3.4-18.7-8.8
			s-7.8-12.9-7.8-21.2c0-0.1,0-0.2,0-0.3c0.1-13.6,11.4-24.4,25-24.4H663c15.6,0,28.2-12.9,28.2-28.7C691.2,206,678.6,193,663,193
			H454.1H345.9H137c-15.6,0-28.2,12.9-28.2,28.7c0,15.8,12.6,28.7,28.2,28.7h34.5c13.6,0,24.9,10.9,25,24.4c0,0.1,0,0.2,0,0.3
			c0,8.3-3,15.8-7.8,21.2c-4.8,5.4-11.4,8.8-18.7,8.8h-56.2c-15.6,0-28.2,13.4-28.2,30s12.6,30,28.2,30h56.3
			c14.4,0,26.3,11.6,26.4,26c0,0.1,0,0.2,0,0.3c0,8.6-3,16.4-7.8,22l0,0c-2.9,3.399-7.3,5.399-11.8,5.399H86.4
			c-15.6,0-28.2,12.9-28.2,28.8c0,15.9,12.6,28.801,28.2,28.801H170c14.6,0,26.5,12.899,26.5,28.8c0,8-3,15.2-7.8,20.399
			c-3.6,3.9-8.7,6.2-14.1,6.2H137c-15.6,0-28.2,13.2-28.2,29.4S121.4,590.6,137,590.6h33.1c18.7,0,29.4,20.301,25.7,37
			c-4,18.301-22.1,17.101-37.6,17.101c-15.9,0-28.7,13.1-28.2,29c0.4,15.399,13.4,27.399,28.8,27.399H346h108.1h187.2
			c15.4,0,28.4-12.1,28.8-27.399c0.4-16-12.399-29-28.199-29c-15.5,0-33.601,1.2-37.601-17.101c-3.7-16.699,7-37,25.7-37h33.1
			c15.601,0,28.2-13.199,28.2-29.399s-12.6-29.4-28.2-29.4h-37.6c-5.3,0-10.4-2.2-14.1-6.2C606.6,520.4,603.6,513.2,603.6,505.2
			c0-15.9,11.9-28.8,26.5-28.8H713.7c15.6,0,28.2-12.9,28.2-28.801C741.9,431.7,729.2,418.9,713.6,418.9z"/>
		<g>
			<rect x="402.2" y="501.3" fill="#7E1012" width="56.399" height="183.3"/>
			<g>
				<path fill="#C52228" d="M612.3,380.4v153.3H223.6V380.4c0-51.5,41.7-93.2,93.2-93.2H519c21,0,40.5,7,56.1,18.7
					c5,3.8,9.7,8.1,13.801,12.8c3.3,3.7,6.199,7.7,8.899,11.8c2.601,4.1,4.9,8.4,6.8,12.8C609.5,354.8,612.3,367.3,612.3,380.4z"/>
				<path fill="#DF222A" d="M604.6,343.4H298.3v-12.8h299.5C600.4,334.7,602.7,339,604.6,343.4z"/>
				<rect x="298.3" y="410.5" fill="#B51F24" width="313.9" height="40.4"/>
				<path opacity="0.06" fill="#FFFFFF" enable-background="new    " d="M588.9,318.8H283.2V306H575.1
					C580.1,309.8,584.8,314.1,588.9,318.8z"/>
				<path fill="#DD282F" d="M410.1,380.4v105H223.6v-105c0-51.5,41.7-93.2,93.2-93.2S410.1,329,410.1,380.4z"/>
				<path fill="#8B1A1C" d="M237.1,518.9V381.7c0-44,35.8-79.7,79.7-79.7c44,0,79.7,35.8,79.7,79.7v137.2H237.1z"/>
				<rect x="81.8" y="527.8" fill="#C52228" width="530.5" height="12.8"/>
				<polygon fill="#A61D21" points="612.3,485.4 612.3,540.6 81.8,540.6 81.8,527.8 223.6,527.8 223.6,533.7 410.1,533.7 
					410.1,485.4 				"/>
			</g>
			<g>
				<polygon fill="#A4A6A8" points="543.9,227.6 488.5,227.6 464.1,227.6 455.5,227.6 455.5,397.2 488.5,397.2 488.5,276 543.9,276 
									"/>
				<polygon fill="#FFFFFF" points="547.2,227.6 491.8,227.6 467.4,227.6 463.5,227.6 463.5,397.2 491.8,397.2 491.8,276 547.2,276 
									"/>
			</g>
			<g>
				<ellipse fill="#FFCF31" cx="476.2" cy="406.4" rx="27.5" ry="32.9"/>
				<ellipse fill="#FFF575" cx="476.2" cy="406.4" rx="16.8" ry="20"/>
			</g>
			<g>
				<g>
					<defs>
						<path id="SVGID_1_" d="M237.1,518.9V381.7c0-44,35.8-79.7,79.7-79.7c44,0,79.7,35.8,79.7,79.7v137.2H237.1z"/>
					</defs>
					<clipPath id="SVGID_2_">
						<use xlink:href="#SVGID_1_"  overflow="visible"/>
					</clipPath>
					<g clip-path="url(#SVGID_2_)">
						<path fill="#FFCF3B" d="M451.5,377.3v135.2c0,3.2-2.6,5.8-5.8,5.8H256.1c-1.2,0-2.4-0.399-3.3-1c-1.5-1-2.5-2.8-2.5-4.8V377.3
							c0-1.3,0.4-2.4,1.1-3.4l0,0c1-1.5,2.8-2.4,4.7-2.4h189.6c2.5,0,4.6,1.6,5.399,3.8C451.3,375.9,451.5,376.6,451.5,377.3z"/>
						<path fill="#FFBC2C" d="M451.5,377.3v135.2c0,3.2-2.6,5.8-5.8,5.8H256.1c-1.2,0-2.4-0.399-3.3-1l198.3-142.1
							C451.3,375.9,451.5,376.6,451.5,377.3z"/>
						<path fill="#D57C28" d="M451.5,379.4l-97.7,77.1c-3.8,3-8.5,2.8-12.2-0.5l-90.2-81.3l0,0c1-2,2.8-3.3,4.7-3.3h189.6
							c2.5,0,4.6,2.1,5.399,5.1L451.5,379.4z"/>
						<path fill="#FECC37" d="M451.5,377.3l-97.7,56.4c-3.8,2.2-8.5,2.1-12.2-0.4l-90.2-59.5l0,0c1-1.5,2.8-2.4,4.7-2.4h189.6
							c2.5,0,4.6,1.6,5.399,3.8L451.5,377.3z"/>
						<path fill="#FFF35A" d="M300.3,394.5l-0.4,0.7c-1.6,2.899-0.6,6.6,2.3,8.2l25.2,14.1c2.899,1.6,6.6,0.6,8.199-2.3l0.4-0.7
							c1.6-2.9,0.6-6.6-2.3-8.2l-25.2-14.1C305.6,390.6,301.9,391.6,300.3,394.5z"/>
					</g>
				</g>
			</g>
			<rect x="365" y="679.8" fill="#7E1012" width="130.5" height="12.3"/>
		</g>
		<g>
			<circle fill="#64B5F6" cx="209.2" cy="251.4" r="12.8"/>
			<circle fill="#64B5F6" cx="313.4" cy="625" r="12.8"/>
			<circle fill="#64B5F6" cx="394.5" cy="242" r="9.4"/>
			<circle fill="#64B5F6" cx="498.4" cy="605.9" r="6.4"/>
			<circle fill="#64B5F6" cx="635" cy="439.3" r="6.4"/>
			<circle fill="#64B5F6" cx="551.6" cy="221.2" r="6.4"/>
			<circle fill="#64B5F6" cx="202.8" cy="605.9" r="6.4"/>
		</g>
	</g>
	<g>
		<g opacity="0.2">
			<circle fill="#212121" cx="314.2" cy="499" r="17.8"/>
			<g id="_x35__7_">
				<path fill="#212121" d="M314.2,484.5c-7.9,0-14.4,6.5-14.4,14.5s6.4,14.5,14.4,14.5c7.899,0,14.399-6.5,14.399-14.5
					S322.2,484.5,314.2,484.5 M318,490.9c1.4,0,2.6,1.199,2.6,2.6c0,0.5-0.399,0.9-0.899,0.9s-0.9-0.4-0.9-0.9s-0.399-0.9-0.899-0.9
					s-0.9,0.4-0.9,0.9s-0.4,0.9-0.9,0.9s-0.899-0.4-0.899-0.9C315.4,492.1,316.6,490.9,318,490.9 M310.5,490.9
					c1.4,0,2.6,1.199,2.6,2.6c0,0.5-0.399,0.9-0.899,0.9s-0.9-0.4-0.9-0.9s-0.399-0.9-0.899-0.9s-0.9,0.4-0.9,0.9s-0.4,0.9-0.9,0.9
					s-0.899-0.4-0.899-0.9C307.9,492.1,309.1,490.9,310.5,490.9 M314.2,507.7c-5.101,0-9.2-4.101-9.2-9.2h18.3
					C323.4,503.6,319.3,507.7,314.2,507.7"/>
			</g>
		</g>
		<g>
			<circle fill="#FFFFFF" stroke="#63C7CC" stroke-width="1.2716" stroke-miterlimit="10" cx="311.6" cy="497" r="16.9"/>
			<path id="_x34__1_" fill="#FFFFFF" stroke="#63C7CC" stroke-width="1.2716" stroke-miterlimit="10" d="M311.6,483.2
				c-7.5,0-13.7,6.1-13.7,13.7c0,7.5,6.1,13.699,13.7,13.699c7.5,0,13.7-6.1,13.7-13.699C325.3,489.3,319.1,483.2,311.6,483.2
				 M314.9,491c0.899,0,1.6,0.7,1.6,1.6c0,0.9-0.7,1.601-1.6,1.601c-0.9,0-1.601-0.7-1.601-1.601C313.3,491.7,314,491,314.9,491
				 M308.1,491c0.9,0,1.601,0.7,1.601,1.6c0,0.9-0.7,1.601-1.601,1.601c-0.899,0-1.6-0.7-1.6-1.601C306.4,491.7,307.2,491,308.1,491
				 M320.9,498.3c-0.9,4.4-4.801,7.601-9.301,7.601c-4.399,0-8.2-3-9.2-7.301c-0.1-0.399,0.2-0.899,0.6-1c0.4-0.1,0.9,0.2,1,0.601
				c0.8,3.6,4,6,7.6,6c3.7,0,7-2.601,7.7-6.3c0.101-0.4,0.5-0.7,1-0.601C320.7,497.4,321,497.9,320.9,498.3"/>
		</g>
	</g>
	<g>
		<g opacity="0.2">
			<ellipse fill="#212121" cx="273" cy="500.5" rx="16.7" ry="16.8"/>
			<g id="_x35__2_">
				<path fill="#212121" d="M273,486.9c-7.5,0-13.5,6.1-13.5,13.6s6,13.6,13.5,13.6s13.5-6.1,13.5-13.6S280.5,486.9,273,486.9
					 M276.5,492.9c1.4,0,2.4,1.1,2.4,2.5c0,0.399-0.4,0.8-0.8,0.8s-0.8-0.4-0.8-0.8c0-0.4-0.4-0.801-0.8-0.801s-0.8,0.4-0.8,0.801
					c0,0.399-0.4,0.8-0.8,0.8s-0.8-0.4-0.8-0.8C274.1,494,275.2,492.9,276.5,492.9 M269.5,492.9c1.4,0,2.4,1.1,2.4,2.5
					c0,0.399-0.4,0.8-0.8,0.8s-0.8-0.4-0.8-0.8c0-0.4-0.4-0.801-0.8-0.801s-0.8,0.4-0.8,0.801c0,0.399-0.4,0.8-0.8,0.8
					s-0.8-0.4-0.8-0.8C267.1,494,268.2,492.9,269.5,492.9 M273,508.7c-4.8,0-8.6-3.9-8.6-8.7h17.2
					C281.6,504.8,277.8,508.7,273,508.7"/>
			</g>
		</g>
		<g>
			
				<ellipse fill="#FFFFFF" stroke="#64A7CC" stroke-width="1.2584" stroke-miterlimit="10" cx="270.1" cy="497.5" rx="16.7" ry="16.8"/>
			<g id="_x35__1_">
				<path fill="none" stroke="#64A7CC" stroke-width="1.2584" stroke-miterlimit="10" d="M270.1,483.9c-7.5,0-13.5,6.1-13.5,13.6
					s6,13.6,13.5,13.6s13.5-6.1,13.5-13.6S277.5,483.9,270.1,483.9 M273.6,489.9c1.4,0,2.4,1.1,2.4,2.5c0,0.399-0.4,0.8-0.8,0.8
					c-0.4,0-0.8-0.4-0.8-0.8c0-0.4-0.4-0.801-0.8-0.801s-0.8,0.4-0.8,0.801c0,0.399-0.4,0.8-0.8,0.8s-0.8-0.4-0.8-0.8
					C271.2,491,272.3,489.9,273.6,489.9 M266.5,489.9c1.4,0,2.4,1.1,2.4,2.5c0,0.399-0.4,0.8-0.8,0.8s-0.8-0.4-0.8-0.8
					c0-0.4-0.4-0.801-0.8-0.801s-0.8,0.4-0.8,0.801c0,0.399-0.4,0.8-0.8,0.8s-0.8-0.4-0.8-0.8C264.1,491,265.2,489.9,266.5,489.9
					 M270.1,505.7c-4.8,0-8.6-3.9-8.6-8.7h17.2C278.7,501.8,274.8,505.7,270.1,505.7"/>
			</g>
		</g>
	</g>
	<g>
		<g opacity="0.2">
			<circle fill="#212121" cx="358.6" cy="499.2" r="17.5"/>
			<g id="_x35__3_">
				<path fill="#212121" d="M358.6,484.9c-7.8,0-14.199,6.399-14.199,14.3c0,7.899,6.3,14.3,14.199,14.3c7.801,0,14.2-6.4,14.2-14.3
					C372.8,491.3,366.4,484.9,358.6,484.9 M362.3,491.2c1.4,0,2.601,1.2,2.601,2.6c0,0.5-0.4,0.9-0.9,0.9s-0.8-0.4-0.8-0.9
					s-0.4-0.899-0.9-0.899s-0.8,0.399-0.8,0.899s-0.4,0.9-0.9,0.9s-0.899-0.4-0.899-0.9C359.7,492.3,360.9,491.2,362.3,491.2
					 M354.9,491.2c1.399,0,2.6,1.2,2.6,2.6c0,0.5-0.4,0.9-0.9,0.9s-0.899-0.4-0.899-0.9s-0.4-0.899-0.9-0.899
					S353.9,493.3,353.9,493.8s-0.4,0.9-0.9,0.9s-0.9-0.4-0.9-0.9C352.3,492.3,353.5,491.2,354.9,491.2 M358.6,507.8
					c-5,0-9.1-4.1-9.1-9.1h18.1C367.6,503.7,363.6,507.8,358.6,507.8"/>
			</g>
		</g>
		<g>
			<path fill="#FFFFFF" stroke="#FFE33D" stroke-width="1.25" stroke-miterlimit="10" d="M372.8,496.7
				c0,9.1-7.399,16.399-16.399,16.399c-9.101,0-16.4-7.399-16.4-16.399c0-9.101,7.4-16.4,16.4-16.4
				C365.4,480.2,372.8,487.6,372.8,496.7z"/>
			<path id="_x33__1_" fill="none" stroke="#FFE33D" stroke-width="1.25" stroke-miterlimit="10" d="M356.3,483.4
				c-7.3,0-13.3,5.899-13.3,13.3c0,7.3,5.9,13.3,13.3,13.3c7.3,0,13.3-5.9,13.3-13.3C369.6,489.3,363.7,483.4,356.3,483.4
				 M359.6,490.9c0.9,0,1.601,0.699,1.601,1.6s-0.7,1.6-1.601,1.6c-0.899,0-1.6-0.699-1.6-1.6S358.8,490.9,359.6,490.9 M353,490.9
				c0.9,0,1.6,0.699,1.6,1.6s-0.699,1.6-1.6,1.6s-1.6-0.699-1.6-1.6S352.1,490.9,353,490.9 M360.7,501.6h-8.9
				c-0.399,0-0.8-0.399-0.8-0.8c0-0.399,0.4-0.8,0.8-0.8h8.9c0.399,0,0.8,0.4,0.8,0.8C361.5,501.3,361.2,501.6,360.7,501.6"/>
		</g>
	</g>
	<g opacity="0.2">
		<path fill="#212121" d="M396.4,515.9c-9.7,0-16.101-7.801-16.101-17.5c0-9.7,6.5-17.5,16.2-17.5"/>
		<g id="_x35__4_">
			<path fill="#212121" d="M396.6,484.3c-7.8,0-12.899,6.3-12.899,14.2s4.899,14.4,12.7,14.4 M394.2,490.5c1.399,0,2.6,1.2,2.6,2.6
				c0,0.5-0.399,0.9-0.899,0.9s-0.9-0.4-0.9-0.9s-0.4-0.899-0.9-0.899S393.2,492.6,393.2,493.1s-0.4,0.9-0.9,0.9
				s-0.899-0.4-0.899-0.9C391.6,491.6,392.8,490.5,394.2,490.5"/>
		</g>
	</g>
	<g>
		<g opacity="0.2">
			<path fill="#212121" d="M380.8,498.5"/>
			<g id="_x35__6_">
				<path fill="#212121" d="M396.4,493.9c-0.5,0-0.9-0.4-0.9-0.9s-0.4-0.9-0.9-0.9s-0.899,0.4-0.899,0.9s-0.4,0.9-0.9,0.9
					s-0.899-0.4-0.899-0.9c0-1.4,1.199-2.6,2.6-2.6"/>
			</g>
		</g>
		<g>
			<path fill="#FFFFFF" stroke="#FFBC00" stroke-width="1.2478" stroke-miterlimit="10" d="M396.4,512.9c-9,0-16.4-7.301-16.4-16.4
				c0-9,7.3-16.4,16.4-16.4"/>
			<path id="_x32__1_" fill="#FFFFFF" stroke="#FFBC00" stroke-width="1.2478" stroke-miterlimit="10" d="M396.3,483.3
				c-7.3,0-13.2,5.9-13.2,13.2s5.9,13.2,13.2,13.2 M392.9,490.8c0.899,0,1.6,0.7,1.6,1.601c0,0.899-0.7,1.6-1.6,1.6
				c-0.9,0-1.601-0.7-1.601-1.6C391.3,491.5,392,490.8,392.9,490.8 M396.3,499.5c-2.1,0-4.2,0.8-5.8,2.2c-0.2,0.1-0.3,0.2-0.5,0.2
				s-0.4-0.101-0.6-0.301c-0.301-0.3-0.301-0.8,0.1-1.1c1.9-1.7,4.3-2.6,6.8-2.6"/>
		</g>
	</g>
</g>
<g id="Designed_by_Freepik">
</g>
</svg>
