<?xml version="1.0" encoding="utf-8"?>
<!-- Generator: Adobe Illustrator 16.0.0, SVG Export Plug-In . SVG Version: 6.00 Build 0)  -->
<!DOCTYPE svg PUBLIC "-//W3C//DTD SVG 1.1//EN" "http://www.w3.org/Graphics/SVG/1.1/DTD/svg11.dtd">
<svg version="1.1" xmlns="http://www.w3.org/2000/svg" xmlns:xlink="http://www.w3.org/1999/xlink" x="0px" y="0px" width="800px"
	 height="800px" viewBox="0 0 800 800" style="enable-background:new 0 0 800 800;" xml:space="preserve">
<style type="text/css">
<![CDATA[
	.st0{fill:#FFFFFF;stroke:#63C7CC;stroke-width:1.2716;stroke-miterlimit:10;}
	.st1{fill:#7E1012;}
	.st2{fill:#FFFFFF;stroke:#FFBC00;stroke-width:1.2478;stroke-miterlimit:10;}
	.st3{fill:#B51F24;}
	.st4{fill:none;stroke:#FFE33D;stroke-width:1.25;stroke-miterlimit:10;}
	.st5{fill:none;stroke:#64A7CC;stroke-width:1.2584;stroke-miterlimit:10;}
	.st6{fill:#8B1A1C;}
	.st7{fill:#BBDEFB;}
	.st8{fill:#212121;}
	.st9{opacity:6.000000e-002;fill:#FFFFFF;}
	.st10{clip-path:url(#SVGID_2_);}
	.st11{fill:#C52228;}
	.st12{fill:#FFFFFF;stroke:#64A7CC;stroke-width:1.2584;stroke-miterlimit:10;}
	.st13{opacity:0.2;}
	.st14{fill:#FECC37;}
	.st15{fill:#FFBC2C;}
	.st16{fill:#FFCF31;}
	.st17{fill:#FFCF3B;}
	.st18{fill:#FFF35A;}
	.st19{fill:#FFF575;}
	.st20{fill:#FFFFFF;}
	.st21{fill:#64B5F6;}
	.st22{fill:#FFFFFF;stroke:#FFE33D;stroke-width:1.25;stroke-miterlimit:10;}
	.st23{fill:#D57C28;}
	.st24{fill:#A4A6A8;}
	.st25{fill:#A61D21;}
	.st26{fill:#DD282F;}
	.st27{fill:#DF222A;}
]]>
</style>
<g id="Background">
	<rect class="st20" width="800" height="800"/>
</g>
<g id="Objects">
	<g>
		<path class="st7" d="M713.6,418.9h-62.2c-4.5,0-8.8-2-11.8-5.4l0,0c-4.8-5.6-7.8-13.4-7.8-22c0-0.1,0-0.2,0-0.3
			c0.1-14.4,12-26,26.4-26h28c15.6,0,28.2-13.4,28.2-30s-12.6-30-28.2-30H630c-7.3,0-13.9-3.4-18.7-8.8c-4.8-5.4-7.8-12.9-7.8-21.2
			c0-0.1,0-0.2,0-0.3c0.1-13.6,11.4-24.4,25-24.4H663c15.6,0,28.2-12.9,28.2-28.7S678.6,193,663,193H454.1H345.9H137
			c-15.6,0-28.2,12.9-28.2,28.7s12.6,28.7,28.2,28.7h34.5c13.6,0,24.9,10.9,25,24.4c0,0.1,0,0.2,0,0.3c0,8.3-3,15.8-7.8,21.2
			c-4.8,5.4-11.4,8.8-18.7,8.8h-56.2c-15.6,0-28.2,13.4-28.2,30s12.6,30,28.2,30h56.3c14.4,0,26.3,11.6,26.4,26c0,0.1,0,0.2,0,0.3
			c0,8.6-3,16.4-7.8,22l0,0c-2.9,3.4-7.3,5.4-11.8,5.4H86.4c-15.6,0-28.2,12.9-28.2,28.8s12.6,28.8,28.2,28.8H170
			c14.6,0,26.5,12.9,26.5,28.8c0,8-3,15.2-7.8,20.4c-3.6,3.9-8.7,6.2-14.1,6.2H137c-15.6,0-28.2,13.2-28.2,29.4s12.6,29.4,28.2,29.4
			c0,0,33.1,0,33.1,0c18.7,0,29.4,20.3,25.7,37c-4,18.3-22.1,17.1-37.6,17.1c-15.9,0-28.7,13.1-28.2,29
			c0.4,15.4,13.4,27.4,28.8,27.4h187.2h108.1h187.2c15.4,0,28.4-12.1,28.8-27.4c0.4-16-12.4-29-28.2-29c-15.5,0-33.6,1.2-37.6-17.1
			c-3.7-16.7,7-37,25.7-37c0,0,33.1,0,33.1,0c15.6,0,28.2-13.2,28.2-29.4s-12.6-29.4-28.2-29.4h-37.6c-5.3,0-10.4-2.2-14.1-6.2
			c-4.8-5.2-7.8-12.4-7.8-20.4c0-15.9,11.9-28.8,26.5-28.8h83.6c15.6,0,28.2-12.9,28.2-28.8S729.2,418.9,713.6,418.9z"/>
		<g>
			<rect x="402.2" y="501.3" class="st1" width="56.4" height="183.3"/>
			<g>
				<path class="st11" d="M612.3,380.4v153.3H223.6V380.4c0-51.5,41.7-93.2,93.2-93.2H519c21,0,40.5,7,56.1,18.7
					c5,3.8,9.7,8.1,13.8,12.8c3.3,3.7,6.2,7.7,8.9,11.8c2.6,4.1,4.9,8.4,6.8,12.8C609.5,354.8,612.3,367.3,612.3,380.4z"/>
				<path class="st27" d="M604.6,343.4H298.3v-12.8h299.5C600.4,334.7,602.7,339,604.6,343.4z"/>
				<rect x="298.3" y="410.5" class="st3" width="313.9" height="40.4"/>
				<path class="st9" d="M588.9,318.8H283.2V306h291.9C580.1,309.8,584.8,314.1,588.9,318.8z"/>
				<path class="st26" d="M410.1,380.4v105H223.6v-105c0-51.5,41.7-93.2,93.2-93.2S410.1,329,410.1,380.4z"/>
				<path class="st6" d="M237.1,518.9V381.7c0-44,35.8-79.7,79.7-79.7c44,0,79.7,35.8,79.7,79.7v137.2H237.1z"/>
				<rect x="81.8" y="527.8" class="st11" width="530.5" height="12.8"/>
				<polygon class="st25" points="612.3,485.4 612.3,540.6 81.8,540.6 81.8,527.8 223.6,527.8 223.6,533.7 410.1,533.7 410.1,485.4 
									"/>
			</g>
			<g>
				<polygon class="st24" points="543.9,227.6 488.5,227.6 464.1,227.6 455.5,227.6 455.5,397.2 488.5,397.2 488.5,276 543.9,276 
									"/>
				<polygon class="st20" points="547.2,227.6 491.8,227.6 467.4,227.6 463.5,227.6 463.5,397.2 491.8,397.2 491.8,276 547.2,276 
									"/>
			</g>
			<g>
				<ellipse class="st16" cx="476.2" cy="406.4" rx="27.5" ry="32.9"/>
				<ellipse class="st19" cx="476.2" cy="406.4" rx="16.8" ry="20"/>
			</g>
			<g>
				<defs>
					<path id="SVGID_1_" d="M237.1,518.9V381.7c0-44,35.8-79.7,79.7-79.7c44,0,79.7,35.8,79.7,79.7v137.2H237.1z"/>
				</defs>
				<clipPath id="SVGID_2_">
					<use xlink:href="#SVGID_1_"  style="overflow:visible;"/>
				</clipPath>
				<g class="st10">
					<path class="st17" d="M451.5,377.3v135.2c0,3.2-2.6,5.8-5.8,5.8H256.1c-1.2,0-2.4-0.4-3.3-1c-1.5-1-2.5-2.8-2.5-4.8V377.3
						c0-1.3,0.4-2.4,1.1-3.4v0c1-1.5,2.8-2.4,4.7-2.4h189.6c2.5,0,4.6,1.6,5.4,3.8C451.3,375.9,451.5,376.6,451.5,377.3z"/>
					<path class="st15" d="M451.5,377.3v135.2c0,3.2-2.6,5.8-5.8,5.8H256.1c-1.2,0-2.4-0.4-3.3-1l198.3-142.1
						C451.3,375.9,451.5,376.6,451.5,377.3z"/>
					<path class="st23" d="M451.5,379.4l-97.7,77.1c-3.8,3-8.5,2.8-12.2-0.5l-90.2-81.3v0c1-2,2.8-3.3,4.7-3.3h189.6
						c2.5,0,4.6,2.1,5.4,5.1L451.5,379.4z"/>
					<path class="st14" d="M451.5,377.3l-97.7,56.4c-3.8,2.2-8.5,2.1-12.2-0.4l-90.2-59.5v0c1-1.5,2.8-2.4,4.7-2.4h189.6
						c2.5,0,4.6,1.6,5.4,3.8L451.5,377.3z"/>
					<path class="st18" d="M300.3,394.5l-0.4,0.7c-1.6,2.9-0.6,6.6,2.3,8.2l25.2,14.1c2.9,1.6,6.6,0.6,8.2-2.3l0.4-0.7
						c1.6-2.9,0.6-6.6-2.3-8.2l-25.2-14.1C305.6,390.6,301.9,391.6,300.3,394.5z"/>
				</g>
			</g>
			<rect x="365" y="679.8" class="st1" width="130.5" height="12.3"/>
		</g>
		<g>
			<circle class="st21" cx="209.2" cy="251.4" r="12.8"/>
			<circle class="st21" cx="313.4" cy="625" r="12.8"/>
			<circle class="st21" cx="394.5" cy="242" r="9.4"/>
			<circle class="st21" cx="498.4" cy="605.9" r="6.4"/>
			<circle class="st21" cx="635" cy="439.3" r="6.4"/>
			<circle class="st21" cx="551.6" cy="221.2" r="6.4"/>
			<circle class="st21" cx="202.8" cy="605.9" r="6.4"/>
		</g>
	</g>
	<g>
		<g class="st13">
			<circle class="st8" cx="314.2" cy="499" r="17.8"/>
			<g id="_x35__7_">
				<path class="st8" d="M314.2,484.5c-7.9,0-14.4,6.5-14.4,14.5c0,8,6.4,14.5,14.4,14.5c7.9,0,14.4-6.5,14.4-14.5
					C328.6,491,322.2,484.5,314.2,484.5 M318,490.9c1.4,0,2.6,1.2,2.6,2.6c0,0.5-0.4,0.9-0.9,0.9s-0.9-0.4-0.9-0.9
					c0-0.5-0.4-0.9-0.9-0.9c-0.5,0-0.9,0.4-0.9,0.9c0,0.5-0.4,0.9-0.9,0.9s-0.9-0.4-0.9-0.9C315.4,492.1,316.6,490.9,318,490.9
					 M310.5,490.9c1.4,0,2.6,1.2,2.6,2.6c0,0.5-0.4,0.9-0.9,0.9s-0.9-0.4-0.9-0.9c0-0.5-0.4-0.9-0.9-0.9c-0.5,0-0.9,0.4-0.9,0.9
					c0,0.5-0.4,0.9-0.9,0.9c-0.5,0-0.9-0.4-0.9-0.9C307.9,492.1,309.1,490.9,310.5,490.9 M314.2,507.7c-5.1,0-9.2-4.1-9.2-9.2h18.3
					C323.4,503.6,319.3,507.7,314.2,507.7"/>
			</g>
		</g>
		<g>
			<circle class="st0" cx="311.6" cy="497" r="16.9"/>
			<path id="_x34__1_" class="st0" d="M311.6,483.2c-7.5,0-13.7,6.1-13.7,13.7c0,7.5,6.1,13.7,13.7,13.7c7.5,0,13.7-6.1,13.7-13.7
				S319.1,483.2,311.6,483.2 M314.9,491c0.9,0,1.6,0.7,1.6,1.6c0,0.9-0.7,1.6-1.6,1.6c-0.9,0-1.6-0.7-1.6-1.6
				C313.3,491.7,314,491,314.9,491 M308.1,491c0.9,0,1.6,0.7,1.6,1.6c0,0.9-0.7,1.6-1.6,1.6c-0.9,0-1.6-0.7-1.6-1.6
				C306.4,491.7,307.2,491,308.1,491 M320.9,498.3c-0.9,4.4-4.8,7.6-9.3,7.6c-4.4,0-8.2-3-9.2-7.3c-0.1-0.4,0.2-0.9,0.6-1
				c0.4-0.1,0.9,0.2,1,0.6c0.8,3.6,4,6,7.6,6c3.7,0,7-2.6,7.7-6.3c0.1-0.4,0.5-0.7,1-0.6C320.7,497.4,321,497.9,320.9,498.3"/>
		</g>
	</g>
	<g>
		<g class="st13">
			<ellipse class="st8" cx="273" cy="500.5" rx="16.7" ry="16.8"/>
			<g id="_x35__2_">
				<path class="st8" d="M273,486.9c-7.5,0-13.5,6.1-13.5,13.6c0,7.5,6,13.6,13.5,13.6c7.5,0,13.5-6.1,13.5-13.6
					S280.5,486.9,273,486.9 M276.5,492.9c1.4,0,2.4,1.1,2.4,2.5c0,0.4-0.4,0.8-0.8,0.8c-0.4,0-0.8-0.4-0.8-0.8
					c0-0.4-0.4-0.8-0.8-0.8c-0.4,0-0.8,0.4-0.8,0.8c0,0.4-0.4,0.8-0.8,0.8s-0.8-0.4-0.8-0.8C274.1,494,275.2,492.9,276.5,492.9
					 M269.5,492.9c1.4,0,2.4,1.1,2.4,2.5c0,0.4-0.4,0.8-0.8,0.8c-0.4,0-0.8-0.4-0.8-0.8c0-0.4-0.4-0.8-0.8-0.8s-0.8,0.4-0.8,0.8
					c0,0.4-0.4,0.8-0.8,0.8s-0.8-0.4-0.8-0.8C267.1,494,268.2,492.9,269.5,492.9 M273,508.7c-4.8,0-8.6-3.9-8.6-8.7h17.2
					C281.6,504.8,277.8,508.7,273,508.7"/>
			</g>
		</g>
		<g>
			<ellipse class="st12" cx="270.1" cy="497.5" rx="16.7" ry="16.8"/>
			<g id="_x35__1_">
				<path class="st5" d="M270.1,483.9c-7.5,0-13.5,6.1-13.5,13.6c0,7.5,6,13.6,13.5,13.6c7.5,0,13.5-6.1,13.5-13.6
					C283.6,490,277.5,483.9,270.1,483.9 M273.6,489.9c1.4,0,2.4,1.1,2.4,2.5c0,0.4-0.4,0.8-0.8,0.8c-0.4,0-0.8-0.4-0.8-0.8
					c0-0.4-0.4-0.8-0.8-0.8c-0.4,0-0.8,0.4-0.8,0.8c0,0.4-0.4,0.8-0.8,0.8c-0.4,0-0.8-0.4-0.8-0.8
					C271.2,491,272.3,489.9,273.6,489.9 M266.5,489.9c1.4,0,2.4,1.1,2.4,2.5c0,0.4-0.4,0.8-0.8,0.8c-0.4,0-0.8-0.4-0.8-0.8
					c0-0.4-0.4-0.8-0.8-0.8c-0.4,0-0.8,0.4-0.8,0.8c0,0.4-0.4,0.8-0.8,0.8c-0.4,0-0.8-0.4-0.8-0.8
					C264.1,491,265.2,489.9,266.5,489.9 M270.1,505.7c-4.8,0-8.6-3.9-8.6-8.7h17.2C278.7,501.8,274.8,505.7,270.1,505.7"/>
			</g>
		</g>
	</g>
	<g>
		<g class="st13">
			<circle class="st8" cx="358.6" cy="499.2" r="17.5"/>
			<g id="_x35__3_">
				<path class="st8" d="M358.6,484.9c-7.8,0-14.2,6.4-14.2,14.3c0,7.9,6.3,14.3,14.2,14.3c7.8,0,14.2-6.4,14.2-14.3
					S366.4,484.9,358.6,484.9 M362.3,491.2c1.4,0,2.6,1.2,2.6,2.6c0,0.5-0.4,0.9-0.9,0.9c-0.5,0-0.8-0.4-0.8-0.9s-0.4-0.9-0.9-0.9
					c-0.5,0-0.8,0.4-0.8,0.9s-0.4,0.9-0.9,0.9c-0.5,0-0.9-0.4-0.9-0.9C359.7,492.3,360.9,491.2,362.3,491.2 M354.9,491.2
					c1.4,0,2.6,1.2,2.6,2.6c0,0.5-0.4,0.9-0.9,0.9s-0.9-0.4-0.9-0.9s-0.4-0.9-0.9-0.9s-0.9,0.4-0.9,0.9s-0.4,0.9-0.9,0.9
					c-0.5,0-0.9-0.4-0.9-0.9C352.3,492.3,353.5,491.2,354.9,491.2 M358.6,507.8c-5,0-9.1-4.1-9.1-9.1h18.1
					C367.6,503.7,363.6,507.8,358.6,507.8"/>
			</g>
		</g>
		<g>
			<path class="st22" d="M372.8,496.7c0,9.1-7.4,16.4-16.4,16.4c-9.1,0-16.4-7.4-16.4-16.4c0-9.1,7.4-16.4,16.4-16.4
				C365.4,480.2,372.8,487.6,372.8,496.7z"/>
			<path id="_x33__1_" class="st4" d="M356.3,483.4c-7.3,0-13.3,5.9-13.3,13.3c0,7.3,5.9,13.3,13.3,13.3c7.3,0,13.3-5.9,13.3-13.3
				C369.6,489.3,363.7,483.4,356.3,483.4 M359.6,490.9c0.9,0,1.6,0.7,1.6,1.6s-0.7,1.6-1.6,1.6s-1.6-0.7-1.6-1.6
				S358.8,490.9,359.6,490.9 M353,490.9c0.9,0,1.6,0.7,1.6,1.6s-0.7,1.6-1.6,1.6c-0.9,0-1.6-0.7-1.6-1.6S352.1,490.9,353,490.9
				 M360.7,501.6h-8.9c-0.4,0-0.8-0.4-0.8-0.8c0-0.4,0.4-0.8,0.8-0.8h8.9c0.4,0,0.8,0.4,0.8,0.8
				C361.5,501.3,361.2,501.6,360.7,501.6"/>
		</g>
	</g>
	<g class="st13">
		<path class="st8" d="M396.4,515.9c-9.7,0-16.1-7.8-16.1-17.5c0-9.7,6.5-17.5,16.2-17.5"/>
		<g id="_x35__4_">
			<path class="st8" d="M397.9,484.2 M396.6,484.3c-7.8,0-12.9,6.3-12.9,14.2c0,7.9,4.9,14.4,12.7,14.4 M403.3,493.9 M401.6,490.5
				 M394.2,490.5c1.4,0,2.6,1.2,2.6,2.6c0,0.5-0.4,0.9-0.9,0.9s-0.9-0.4-0.9-0.9s-0.4-0.9-0.9-0.9s-0.9,0.4-0.9,0.9
				s-0.4,0.9-0.9,0.9c-0.5,0-0.9-0.4-0.9-0.9C391.6,491.6,392.8,490.5,394.2,490.5 M397.9,507.1"/>
		</g>
	</g>
	<g>
		<g class="st13">
			<path class="st8" d="M380.8,498.5"/>
			<g id="_x35__6_">
				<path class="st8" d="M384.2,498.5 M396.4,493.9c-0.5,0-0.9-0.4-0.9-0.9c0-0.5-0.4-0.9-0.9-0.9c-0.5,0-0.9,0.4-0.9,0.9
					s-0.4,0.9-0.9,0.9s-0.9-0.4-0.9-0.9c0-1.4,1.2-2.6,2.6-2.6 M394.7,490.5 M389.3,498"/>
			</g>
		</g>
		<g>
			<path class="st2" d="M396.4,512.9c-9,0-16.4-7.3-16.4-16.4c0-9,7.3-16.4,16.4-16.4"/>
			<path id="_x32__1_" class="st2" d="M396.3,483.3 M396.3,483.3c-7.3,0-13.2,5.9-13.2,13.2c0,7.3,5.9,13.2,13.2,13.2 M392.9,490.8
				c0.9,0,1.6,0.7,1.6,1.6c0,0.9-0.7,1.6-1.6,1.6c-0.9,0-1.6-0.7-1.6-1.6C391.3,491.5,392,490.8,392.9,490.8 M396.3,499.5
				c-2.1,0-4.2,0.8-5.8,2.2c-0.2,0.1-0.3,0.2-0.5,0.2c-0.2,0-0.4-0.1-0.6-0.3c-0.3-0.3-0.3-0.8,0.1-1.1c1.9-1.7,4.3-2.6,6.8-2.6"/>
		</g>
	</g>
</g>
<g id="Designed_by_Freepik">
</g>
</svg>
