<?xml version="1.0" encoding="utf-8"?>
<!-- Generator: Adobe Illustrator 16.0.0, SVG Export Plug-In . SVG Version: 6.00 Build 0)  -->
<!DOCTYPE svg PUBLIC "-//W3C//DTD SVG 1.1//EN" "http://www.w3.org/Graphics/SVG/1.1/DTD/svg11.dtd">
<svg version="1.1" id="Layer_1" xmlns="http://www.w3.org/2000/svg" xmlns:xlink="http://www.w3.org/1999/xlink" x="0px" y="0px"
	 width="700px" height="700px" viewBox="0 0 700 700" enable-background="new 0 0 700 700" xml:space="preserve">
<g id="BACKGROUND" display="none">
	<rect x="-50" y="-13" display="inline" fill="#4F9CD0" width="800" height="800"/>
	<g display="inline">
		<g>
			<path fill="#FFFFFF" d="M236.024,761.287v-0.258c-0.349,0.398-0.692,0.725-1.031,0.974c-0.338,0.251-0.706,0.441-1.102,0.569
				c-0.396,0.133-0.827,0.194-1.296,0.194c-0.621,0-1.196-0.13-1.725-0.393c-0.528-0.263-0.986-0.639-1.372-1.126
				c-0.387-0.487-0.68-1.061-0.879-1.72c-0.199-0.658-0.299-1.371-0.299-2.138c0-1.619,0.396-2.885,1.188-3.791
				c0.792-0.903,1.833-1.355,3.125-1.355c0.747,0,1.377,0.129,1.89,0.384c0.513,0.256,1.013,0.652,1.501,1.183v-3.826
				c0-0.533,0.105-0.935,0.318-1.206c0.211-0.272,0.514-0.408,0.907-0.408s0.694,0.125,0.907,0.375
				c0.212,0.251,0.318,0.618,0.318,1.105v11.437c0,0.494-0.113,0.862-0.342,1.11c-0.228,0.246-0.522,0.369-0.883,0.369
				c-0.354,0-0.647-0.127-0.879-0.383C236.139,762.127,236.024,761.762,236.024,761.287z M230.923,757.479
				c0,0.703,0.109,1.302,0.328,1.796c0.219,0.493,0.518,0.864,0.897,1.114c0.38,0.25,0.795,0.377,1.244,0.377
				c0.456,0,0.872-0.119,1.25-0.356c0.376-0.236,0.677-0.603,0.902-1.092c0.225-0.49,0.337-1.104,0.337-1.839
				c0-0.69-0.112-1.283-0.337-1.782c-0.225-0.495-0.528-0.875-0.912-1.14c-0.383-0.262-0.803-0.393-1.258-0.393
				c-0.475,0-0.899,0.135-1.273,0.402c-0.374,0.27-0.663,0.653-0.869,1.157C231.026,756.229,230.923,756.813,230.923,757.479z"/>
			<path fill="#FFFFFF" d="M247.458,758.135h-5.071c0.006,0.588,0.125,1.107,0.356,1.558c0.23,0.449,0.538,0.789,0.921,1.017
				c0.383,0.229,0.806,0.341,1.268,0.341c0.31,0,0.593-0.035,0.85-0.106c0.257-0.074,0.505-0.188,0.746-0.344
				c0.241-0.153,0.462-0.32,0.665-0.499c0.202-0.178,0.464-0.42,0.788-0.723c0.133-0.113,0.323-0.172,0.571-0.172
				c0.266,0,0.48,0.074,0.645,0.221c0.165,0.146,0.248,0.351,0.248,0.617c0,0.234-0.093,0.507-0.275,0.82
				c-0.185,0.313-0.462,0.614-0.832,0.902c-0.372,0.288-0.835,0.526-1.397,0.718c-0.56,0.189-1.204,0.283-1.933,0.283
				c-1.665,0-2.96-0.475-3.884-1.424s-1.386-2.237-1.386-3.865c0-0.767,0.113-1.479,0.341-2.133
				c0.229-0.654,0.561-1.217,0.997-1.686c0.437-0.469,0.975-0.827,1.615-1.078c0.639-0.25,1.349-0.374,2.127-0.374
				c1.013,0,1.882,0.212,2.606,0.641c0.726,0.428,1.27,0.979,1.63,1.655c0.36,0.679,0.542,1.37,0.542,2.071
				c0,0.653-0.187,1.075-0.56,1.27C248.662,758.037,248.136,758.135,247.458,758.135z M242.386,756.662h4.702
				c-0.063-0.887-0.303-1.551-0.717-1.99c-0.415-0.439-0.96-0.66-1.638-0.66c-0.646,0-1.177,0.224-1.591,0.668
				C242.727,755.127,242.476,755.787,242.386,756.662z"/>
			<path fill="#FFFFFF" d="M259.272,759.377c0,0.715-0.173,1.328-0.522,1.839c-0.348,0.509-0.862,0.896-1.543,1.159
				c-0.68,0.263-1.508,0.393-2.483,0.393c-0.931,0-1.729-0.143-2.394-0.427s-1.156-0.642-1.472-1.066
				c-0.317-0.43-0.475-0.857-0.475-1.289c0-0.284,0.101-0.527,0.304-0.73c0.202-0.201,0.459-0.303,0.77-0.303
				c0.271,0,0.48,0.065,0.626,0.199c0.146,0.133,0.286,0.319,0.417,0.559c0.266,0.465,0.585,0.808,0.956,1.037
				c0.37,0.228,0.875,0.342,1.515,0.342c0.519,0,0.945-0.117,1.277-0.347c0.332-0.233,0.498-0.496,0.498-0.794
				c0-0.456-0.172-0.787-0.518-0.996c-0.345-0.209-0.914-0.41-1.705-0.601c-0.893-0.221-1.619-0.453-2.18-0.697
				c-0.561-0.242-1.008-0.565-1.344-0.963c-0.335-0.399-0.503-0.892-0.503-1.475c0-0.518,0.155-1.009,0.465-1.472
				c0.311-0.462,0.768-0.831,1.374-1.106c0.604-0.274,1.333-0.414,2.188-0.414c0.671,0,1.275,0.07,1.809,0.211
				c0.536,0.138,0.983,0.326,1.34,0.562c0.358,0.233,0.63,0.492,0.816,0.777c0.186,0.284,0.28,0.563,0.28,0.836
				c0,0.298-0.1,0.541-0.298,0.731c-0.199,0.188-0.482,0.285-0.851,0.285c-0.266,0-0.492-0.076-0.679-0.229
				c-0.187-0.151-0.4-0.381-0.641-0.684c-0.196-0.253-0.426-0.457-0.693-0.607c-0.266-0.152-0.627-0.229-1.083-0.229
				c-0.469,0-0.857,0.098-1.168,0.3c-0.31,0.198-0.465,0.446-0.465,0.743c0,0.273,0.114,0.496,0.341,0.67
				c0.229,0.176,0.535,0.32,0.922,0.435c0.386,0.112,0.917,0.252,1.596,0.416c0.803,0.196,1.46,0.433,1.97,0.703
				c0.509,0.271,0.896,0.594,1.16,0.965C259.142,758.48,259.272,758.902,259.272,759.377z"/>
			<path fill="#FFFFFF" d="M261.921,751.021c-0.361,0-0.669-0.112-0.926-0.334c-0.257-0.221-0.385-0.533-0.385-0.94
				c0-0.367,0.131-0.668,0.394-0.906c0.263-0.237,0.569-0.355,0.917-0.355c0.336,0,0.633,0.106,0.893,0.322
				c0.26,0.217,0.39,0.527,0.39,0.939c0,0.4-0.127,0.712-0.381,0.937C262.57,750.907,262.27,751.021,261.921,751.021z
				 M263.204,753.697v7.494c0,0.52-0.124,0.913-0.371,1.179c-0.248,0.265-0.56,0.396-0.94,0.396s-0.689-0.135-0.926-0.407
				c-0.238-0.271-0.356-0.662-0.356-1.168v-7.418c0-0.513,0.118-0.898,0.356-1.158c0.237-0.261,0.546-0.392,0.926-0.392
				s0.693,0.131,0.94,0.392C263.081,752.875,263.204,753.236,263.204,753.697z"/>
			<path fill="#FFFFFF" d="M274.563,754.125v7.532c0,0.859-0.093,1.603-0.277,2.224c-0.182,0.619-0.477,1.133-0.883,1.537
				c-0.405,0.404-0.936,0.707-1.59,0.902c-0.655,0.196-1.471,0.295-2.446,0.295c-0.893,0-1.69-0.125-2.394-0.375
				c-0.702-0.252-1.243-0.574-1.624-0.97c-0.379-0.396-0.57-0.803-0.57-1.221c0-0.315,0.108-0.576,0.324-0.772
				c0.215-0.201,0.475-0.302,0.778-0.302c0.38,0,0.712,0.169,0.998,0.504c0.139,0.171,0.283,0.346,0.432,0.52
				c0.149,0.175,0.314,0.323,0.494,0.446c0.181,0.123,0.397,0.215,0.65,0.274s0.545,0.09,0.874,0.09c0.671,0,1.192-0.094,1.563-0.28
				c0.371-0.187,0.63-0.447,0.779-0.783c0.149-0.334,0.236-0.693,0.261-1.078c0.025-0.383,0.044-0.998,0.057-1.848
				c-0.399,0.559-0.859,0.982-1.382,1.273c-0.522,0.29-1.145,0.438-1.866,0.438c-0.868,0-1.625-0.224-2.275-0.665
				c-0.648-0.444-1.147-1.063-1.495-1.862c-0.349-0.799-0.522-1.718-0.522-2.763c0-0.778,0.105-1.483,0.317-2.108
				c0.213-0.629,0.515-1.156,0.907-1.587c0.393-0.431,0.845-0.755,1.358-0.974c0.513-0.219,1.076-0.327,1.691-0.327
				c0.734,0,1.371,0.142,1.909,0.421c0.538,0.284,1.039,0.726,1.5,1.326v-0.353c0-0.448,0.11-0.797,0.332-1.045
				c0.222-0.246,0.507-0.371,0.855-0.371c0.5,0,0.832,0.164,0.997,0.49C274.48,753.041,274.563,753.512,274.563,754.125z
				 M267.05,757.412c0,1.051,0.229,1.846,0.688,2.384s1.053,0.808,1.781,0.808c0.43,0,0.837-0.115,1.22-0.347
				c0.384-0.23,0.695-0.581,0.937-1.045c0.24-0.466,0.361-1.03,0.361-1.695c0-1.058-0.232-1.882-0.698-2.47
				c-0.466-0.588-1.078-0.883-1.838-0.883c-0.741,0-1.334,0.281-1.78,0.846C267.272,755.572,267.05,756.374,267.05,757.412z"/>
			<path fill="#FFFFFF" d="M278.684,753.66v0.313c0.455-0.603,0.954-1.044,1.496-1.324c0.542-0.281,1.163-0.425,1.866-0.425
				c0.684,0,1.295,0.15,1.833,0.447c0.538,0.299,0.941,0.72,1.206,1.262c0.172,0.318,0.282,0.661,0.333,1.027
				c0.051,0.368,0.077,0.836,0.077,1.406v4.823c0,0.521-0.119,0.913-0.357,1.18c-0.237,0.265-0.546,0.396-0.926,0.396
				c-0.387,0-0.7-0.135-0.94-0.408c-0.241-0.271-0.361-0.661-0.361-1.168v-4.32c0-0.854-0.119-1.509-0.356-1.962
				c-0.238-0.451-0.71-0.68-1.42-0.68c-0.461,0-0.883,0.139-1.263,0.413c-0.38,0.275-0.659,0.654-0.836,1.137
				c-0.126,0.386-0.19,1.105-0.19,2.164v3.248c0,0.525-0.123,0.922-0.365,1.185c-0.244,0.263-0.559,0.393-0.945,0.393
				c-0.375,0-0.681-0.135-0.922-0.407c-0.24-0.271-0.361-0.662-0.361-1.169v-7.493c0-0.493,0.107-0.863,0.323-1.106
				c0.216-0.243,0.51-0.366,0.883-0.366c0.229,0,0.435,0.055,0.619,0.163c0.183,0.108,0.331,0.271,0.441,0.483
				C278.628,753.087,278.684,753.35,278.684,753.66z"/>
			<path fill="#FFFFFF" d="M294.458,758.135h-5.071c0.007,0.588,0.125,1.107,0.356,1.558c0.231,0.449,0.538,0.789,0.921,1.017
				c0.382,0.229,0.805,0.341,1.267,0.341c0.311,0,0.594-0.035,0.851-0.106c0.255-0.074,0.504-0.188,0.746-0.344
				c0.24-0.153,0.461-0.32,0.665-0.499c0.202-0.178,0.464-0.42,0.788-0.723c0.133-0.113,0.323-0.172,0.57-0.172
				c0.266,0,0.481,0.074,0.646,0.221c0.165,0.147,0.247,0.351,0.247,0.617c0,0.234-0.091,0.507-0.275,0.82s-0.461,0.614-0.832,0.902
				s-0.835,0.526-1.396,0.718c-0.561,0.19-1.205,0.283-1.933,0.283c-1.665,0-2.96-0.475-3.885-1.424
				c-0.923-0.949-1.386-2.237-1.386-3.865c0-0.767,0.114-1.479,0.342-2.133s0.561-1.217,0.998-1.686s0.975-0.827,1.614-1.078
				c0.639-0.25,1.349-0.374,2.128-0.374c1.013,0,1.881,0.212,2.606,0.641c0.726,0.428,1.269,0.979,1.63,1.655
				c0.36,0.679,0.542,1.37,0.542,2.071c0,0.653-0.187,1.075-0.561,1.27C295.662,758.037,295.136,758.135,294.458,758.135z
				 M289.387,756.662h4.701c-0.063-0.887-0.302-1.551-0.717-1.99s-0.961-0.66-1.638-0.66c-0.646,0-1.177,0.224-1.592,0.668
				C289.726,755.127,289.476,755.787,289.387,756.662z"/>
			<path fill="#FFFFFF" d="M305.028,761.287v-0.258c-0.348,0.398-0.691,0.725-1.03,0.974c-0.339,0.251-0.706,0.441-1.102,0.569
				c-0.395,0.133-0.828,0.194-1.296,0.194c-0.622,0-1.196-0.13-1.724-0.393c-0.529-0.263-0.986-0.639-1.373-1.126
				c-0.387-0.487-0.679-1.061-0.878-1.72c-0.2-0.658-0.299-1.371-0.299-2.138c0-1.619,0.396-2.885,1.187-3.791
				c0.792-0.903,1.833-1.355,3.125-1.355c0.747,0,1.377,0.129,1.89,0.384c0.513,0.256,1.013,0.652,1.5,1.183v-3.826
				c0-0.533,0.106-0.935,0.319-1.206c0.211-0.272,0.515-0.408,0.907-0.408c0.393,0,0.694,0.125,0.907,0.375
				c0.212,0.251,0.318,0.618,0.318,1.105v11.437c0,0.494-0.114,0.862-0.343,1.11c-0.228,0.246-0.521,0.369-0.883,0.369
				c-0.354,0-0.647-0.127-0.879-0.383C305.144,762.127,305.028,761.762,305.028,761.287z M299.928,757.479
				c0,0.703,0.108,1.302,0.327,1.796c0.218,0.493,0.518,0.864,0.898,1.114c0.379,0.25,0.794,0.377,1.243,0.377
				c0.457,0,0.873-0.119,1.249-0.356c0.377-0.236,0.678-0.603,0.902-1.092c0.225-0.49,0.337-1.104,0.337-1.839
				c0-0.69-0.112-1.283-0.337-1.782c-0.224-0.495-0.528-0.875-0.912-1.14c-0.384-0.262-0.803-0.393-1.259-0.393
				c-0.474,0-0.899,0.135-1.272,0.402c-0.373,0.27-0.663,0.653-0.869,1.157C300.03,756.229,299.928,756.813,299.928,757.479z"/>
			<path fill="#FFFFFF" d="M315.626,749.852v3.961c0.487-0.508,0.984-0.896,1.491-1.163c0.506-0.271,1.134-0.403,1.881-0.403
				c0.861,0,1.616,0.204,2.266,0.611c0.648,0.409,1.151,1.002,1.511,1.775c0.356,0.775,0.536,1.696,0.536,2.76
				c0,0.786-0.1,1.506-0.299,2.161c-0.2,0.655-0.489,1.225-0.869,1.704c-0.38,0.48-0.841,0.854-1.382,1.117
				c-0.542,0.263-1.139,0.393-1.791,0.393c-0.398,0-0.774-0.047-1.125-0.143c-0.352-0.094-0.65-0.218-0.897-0.375
				c-0.246-0.154-0.457-0.313-0.631-0.479c-0.175-0.164-0.404-0.412-0.689-0.742v0.258c0,0.487-0.117,0.854-0.352,1.106
				c-0.233,0.25-0.531,0.373-0.894,0.373c-0.367,0-0.66-0.123-0.878-0.373c-0.219-0.252-0.328-0.619-0.328-1.106v-11.322
				c0-0.525,0.106-0.924,0.317-1.19c0.212-0.271,0.509-0.403,0.889-0.403c0.399,0,0.706,0.128,0.921,0.384
				C315.518,749.012,315.626,749.375,315.626,749.852z M315.75,757.555c0,1.032,0.236,1.824,0.708,2.378
				c0.472,0.556,1.091,0.833,1.857,0.833c0.651,0,1.214-0.282,1.686-0.852c0.472-0.566,0.708-1.378,0.708-2.436
				c0-0.685-0.097-1.273-0.294-1.768c-0.197-0.495-0.475-0.876-0.835-1.146c-0.361-0.269-0.783-0.402-1.264-0.402
				c-0.494,0-0.936,0.135-1.32,0.402c-0.386,0.27-0.69,0.657-0.912,1.168C315.86,756.244,315.75,756.852,315.75,757.555z"/>
			<path fill="#FFFFFF" d="M326.672,763.092l0.237-0.58l-3.191-8.035c-0.196-0.461-0.295-0.798-0.295-1.007
				c0-0.222,0.059-0.427,0.171-0.616c0.114-0.19,0.271-0.344,0.471-0.455c0.199-0.115,0.406-0.174,0.622-0.174
				c0.373,0,0.655,0.12,0.847,0.357c0.189,0.237,0.356,0.576,0.503,1.02l2.193,6.384l2.08-5.937
				c0.164-0.479,0.313-0.856,0.446-1.131c0.133-0.271,0.273-0.455,0.422-0.549c0.148-0.096,0.359-0.146,0.632-0.146
				c0.197,0,0.386,0.054,0.565,0.158s0.319,0.245,0.417,0.422c0.098,0.179,0.147,0.363,0.147,0.562
				c-0.025,0.119-0.065,0.291-0.123,0.514c-0.059,0.221-0.127,0.447-0.208,0.674l-3.382,8.853c-0.292,0.778-0.576,1.389-0.854,1.833
				c-0.279,0.441-0.647,0.785-1.106,1.021c-0.459,0.238-1.078,0.357-1.856,0.357c-0.759,0-1.33-0.082-1.708-0.246
				c-0.381-0.166-0.57-0.467-0.57-0.903c0-0.298,0.089-0.526,0.271-0.688c0.18-0.161,0.447-0.244,0.801-0.244
				c0.14,0,0.275,0.021,0.409,0.059c0.165,0.037,0.307,0.059,0.427,0.059c0.297,0,0.532-0.044,0.704-0.135
				c0.17-0.088,0.324-0.24,0.46-0.461C326.337,763.838,326.495,763.516,326.672,763.092z"/>
		</g>
		<g>
			<path fill="#FFFFFF" d="M364.234,752.45h0.618v-0.778c0-0.813,0.1-1.457,0.307-1.938c0.204-0.479,0.556-0.826,1.047-1.045
				c0.491-0.218,1.163-0.326,2.017-0.326c1.521,0,2.272,0.367,2.272,1.112c0,0.239-0.079,0.445-0.239,0.615
				c-0.154,0.17-0.344,0.257-0.559,0.257c-0.101,0-0.278-0.019-0.527-0.06c-0.237-0.033-0.452-0.056-0.623-0.056
				c-0.467,0-0.767,0.141-0.904,0.414c-0.128,0.275-0.194,0.669-0.194,1.186v0.617h0.633c0.99,0,1.479,0.296,1.479,0.896
				c0,0.418-0.127,0.69-0.393,0.806c-0.262,0.112-0.624,0.17-1.088,0.17h-0.633v6.871c0,0.512-0.121,0.899-0.37,1.168
				c-0.241,0.272-0.554,0.406-0.942,0.406c-0.367,0-0.671-0.134-0.918-0.406c-0.244-0.269-0.363-0.656-0.363-1.168v-6.871h-0.715
				c-0.389,0-0.683-0.083-0.894-0.263c-0.209-0.17-0.314-0.397-0.314-0.677C362.931,752.758,363.365,752.45,364.234,752.45"/>
			<path fill="#FFFFFF" d="M372.724,759.024v2.167c0,0.523-0.133,0.92-0.374,1.18c-0.246,0.267-0.559,0.396-0.938,0.396
				c-0.382,0-0.688-0.132-0.927-0.399c-0.236-0.266-0.36-0.657-0.36-1.175v-7.223c0-1.166,0.42-1.749,1.261-1.749
				c0.435,0,0.743,0.135,0.935,0.408c0.19,0.273,0.295,0.674,0.316,1.208c0.309-0.534,0.624-0.935,0.948-1.208
				c0.333-0.273,0.763-0.408,1.31-0.408c0.55,0,1.072,0.135,1.587,0.408s0.771,0.637,0.771,1.084c0,0.315-0.11,0.58-0.325,0.782
				c-0.221,0.209-0.455,0.312-0.707,0.312c-0.1,0-0.33-0.063-0.691-0.18c-0.365-0.113-0.688-0.173-0.963-0.173
				c-0.381,0-0.692,0.103-0.933,0.298c-0.242,0.205-0.431,0.497-0.563,0.887c-0.13,0.396-0.221,0.865-0.273,1.404
				C372.746,757.584,372.724,758.246,372.724,759.024"/>
			<path fill="#FFFFFF" d="M384.645,758.132h-5.073c0.01,0.588,0.124,1.11,0.354,1.56c0.234,0.445,0.539,0.785,0.924,1.017
				c0.386,0.228,0.805,0.34,1.27,0.34c0.312,0,0.593-0.033,0.85-0.11c0.254-0.069,0.505-0.187,0.745-0.342
				c0.242-0.152,0.46-0.318,0.664-0.5c0.203-0.175,0.467-0.416,0.791-0.72c0.134-0.112,0.324-0.174,0.567-0.174
				c0.269,0,0.48,0.074,0.648,0.223c0.166,0.146,0.243,0.352,0.243,0.617c0,0.234-0.089,0.508-0.268,0.818
				c-0.188,0.317-0.464,0.617-0.835,0.907c-0.375,0.283-0.841,0.525-1.398,0.714c-0.559,0.189-1.205,0.286-1.932,0.286
				c-1.67,0-2.964-0.475-3.888-1.423c-0.924-0.952-1.391-2.242-1.391-3.867c0-0.769,0.116-1.479,0.347-2.136
				c0.226-0.658,0.559-1.217,0.999-1.688c0.437-0.471,0.972-0.828,1.612-1.078c0.638-0.25,1.347-0.375,2.128-0.375
				c1.011,0,1.881,0.215,2.606,0.646c0.725,0.424,1.273,0.978,1.629,1.654c0.361,0.681,0.542,1.368,0.542,2.074
				c0,0.647-0.188,1.07-0.563,1.266C385.847,758.035,385.322,758.132,384.645,758.132 M379.57,756.657h4.702
				c-0.063-0.886-0.3-1.55-0.716-1.986c-0.418-0.442-0.959-0.661-1.64-0.661c-0.646,0-1.178,0.221-1.592,0.67
				C379.911,755.125,379.657,755.783,379.57,756.657"/>
			<path fill="#FFFFFF" d="M395.432,758.132h-5.071c0.005,0.588,0.125,1.11,0.354,1.56c0.231,0.445,0.539,0.785,0.922,1.017
				c0.383,0.228,0.806,0.34,1.271,0.34c0.308,0,0.593-0.033,0.845-0.11c0.26-0.069,0.506-0.187,0.75-0.342
				c0.242-0.152,0.46-0.318,0.664-0.5c0.199-0.175,0.464-0.416,0.788-0.72c0.136-0.112,0.326-0.174,0.569-0.174
				c0.268,0,0.481,0.074,0.649,0.223c0.164,0.146,0.239,0.352,0.239,0.617c0,0.234-0.087,0.508-0.272,0.818
				c-0.178,0.317-0.456,0.617-0.831,0.907c-0.368,0.283-0.84,0.525-1.396,0.714c-0.557,0.189-1.207,0.286-1.934,0.286
				c-1.669,0-2.96-0.475-3.889-1.423c-0.923-0.952-1.389-2.242-1.389-3.867c0-0.769,0.116-1.479,0.349-2.136
				c0.227-0.658,0.56-1.217,0.996-1.688c0.436-0.471,0.972-0.828,1.613-1.078c0.638-0.25,1.351-0.375,2.129-0.375
				c1.009,0,1.879,0.215,2.613,0.646c0.72,0.424,1.266,0.978,1.621,1.654c0.358,0.681,0.545,1.368,0.545,2.074
				c0,0.647-0.191,1.07-0.563,1.266C396.632,758.035,396.107,758.132,395.432,758.132 M390.359,756.657h4.699
				c-0.063-0.886-0.304-1.55-0.715-1.986c-0.421-0.442-0.962-0.661-1.643-0.661c-0.646,0-1.176,0.221-1.593,0.67
				C390.697,755.125,390.443,755.783,390.359,756.657"/>
			<path fill="#FFFFFF" d="M401.111,753.68v0.312c0.485-0.603,0.994-1.043,1.523-1.324c0.52-0.284,1.118-0.428,1.782-0.428
				c0.795,0,1.535,0.209,2.207,0.618c0.672,0.414,1.198,1.015,1.589,1.806c0.391,0.796,0.587,1.729,0.587,2.813
				c0,0.797-0.112,1.531-0.337,2.201c-0.224,0.668-0.537,1.228-0.929,1.681c-0.394,0.449-0.855,0.801-1.39,1.046
				c-0.542,0.241-1.111,0.362-1.729,0.362c-0.738,0-1.363-0.148-1.865-0.446c-0.502-0.292-0.981-0.733-1.44-1.307v3.894
				c0,1.135-0.416,1.71-1.244,1.71c-0.49,0-0.81-0.146-0.972-0.44c-0.151-0.298-0.233-0.723-0.233-1.291v-11.192
				c0-0.494,0.105-0.858,0.32-1.107c0.215-0.238,0.512-0.363,0.885-0.363c0.369,0,0.666,0.125,0.896,0.374
				C400.998,752.849,401.111,753.205,401.111,753.68 M406.195,757.447c0-0.686-0.106-1.273-0.314-1.765
				c-0.209-0.491-0.499-0.866-0.866-1.127c-0.366-0.264-0.781-0.396-1.231-0.396c-0.714,0-1.318,0.284-1.81,0.844
				c-0.491,0.566-0.738,1.396-0.738,2.492c0,1.027,0.245,1.834,0.734,2.407c0.487,0.572,1.086,0.857,1.813,0.857
				c0.429,0,0.831-0.127,1.198-0.373c0.37-0.252,0.663-0.626,0.883-1.126C406.085,758.76,406.195,758.154,406.195,757.447"/>
			<path fill="#FFFFFF" d="M411.411,751.014c-0.362,0-0.669-0.113-0.923-0.335c-0.26-0.224-0.388-0.532-0.388-0.937
				c0-0.368,0.131-0.67,0.396-0.91c0.263-0.234,0.566-0.355,0.914-0.355c0.34,0,0.636,0.106,0.894,0.319
				c0.261,0.218,0.392,0.534,0.392,0.946c0,0.398-0.127,0.711-0.377,0.936C412.063,750.899,411.764,751.014,411.411,751.014
				 M412.695,753.691v7.503c0,0.515-0.123,0.906-0.369,1.172c-0.25,0.269-0.563,0.399-0.941,0.399c-0.382,0-0.686-0.134-0.929-0.406
				c-0.233-0.275-0.354-0.664-0.354-1.165v-7.429c0-0.51,0.121-0.896,0.354-1.153c0.243-0.266,0.547-0.393,0.929-0.393
				c0.38,0,0.691,0.127,0.941,0.393C412.572,752.871,412.695,753.234,412.695,753.691"/>
			<path fill="#FFFFFF" d="M421.055,761.583l-2.282-3.767l-1.408,1.328v2.065c0,0.498-0.133,0.881-0.397,1.148
				c-0.256,0.272-0.564,0.406-0.906,0.406c-0.397,0-0.715-0.132-0.939-0.399c-0.228-0.266-0.344-0.657-0.344-1.176v-11.063
				c0-0.574,0.113-1.012,0.331-1.313c0.224-0.307,0.545-0.452,0.952-0.452c0.4,0,0.714,0.137,0.95,0.411
				c0.233,0.271,0.354,0.673,0.354,1.201v6.293l2.915-3.063c0.361-0.377,0.633-0.641,0.827-0.778c0.188-0.14,0.42-0.208,0.688-0.208
				c0.326,0,0.594,0.104,0.815,0.31c0.212,0.205,0.319,0.466,0.319,0.772c0,0.379-0.354,0.89-1.055,1.521l-1.377,1.263l2.659,4.183
				c0.192,0.313,0.339,0.545,0.424,0.705c0.084,0.16,0.131,0.32,0.131,0.463c0,0.412-0.115,0.734-0.342,0.976
				c-0.224,0.237-0.523,0.354-0.886,0.354c-0.316,0-0.563-0.081-0.733-0.257C421.582,762.338,421.345,762.027,421.055,761.583"/>
			<path fill="#FFFFFF" d="M426.69,762.767c-0.393,0-0.729-0.126-1.015-0.382c-0.284-0.248-0.429-0.604-0.429-1.063
				c0-0.386,0.138-0.72,0.41-0.994c0.273-0.279,0.606-0.419,1.008-0.419c0.397,0,0.735,0.14,1.022,0.412
				c0.278,0.274,0.422,0.611,0.422,1.001c0,0.452-0.144,0.809-0.422,1.061C427.401,762.641,427.069,762.767,426.69,762.767"/>
			<path fill="#FFFFFF" d="M439.589,759.557c0,0.32-0.097,0.668-0.291,1.034c-0.19,0.37-0.488,0.718-0.886,1.05
				c-0.396,0.332-0.891,0.603-1.494,0.805c-0.602,0.202-1.281,0.306-2.031,0.306c-1.605,0-2.857-0.469-3.758-1.4
				c-0.895-0.936-1.346-2.188-1.346-3.76c0-1.066,0.205-2.006,0.619-2.824c0.406-0.813,1.004-1.446,1.78-1.895
				c0.779-0.447,1.718-0.67,2.796-0.67c0.673,0,1.286,0.099,1.852,0.295c0.561,0.195,1.033,0.451,1.426,0.76
				c0.387,0.314,0.686,0.645,0.889,0.992c0.207,0.352,0.309,0.681,0.309,0.986c0,0.309-0.113,0.571-0.343,0.788
				c-0.235,0.215-0.517,0.322-0.838,0.322c-0.221,0-0.398-0.057-0.541-0.166c-0.146-0.11-0.306-0.289-0.479-0.541
				c-0.316-0.479-0.646-0.842-0.995-1.08c-0.344-0.241-0.781-0.36-1.313-0.36c-0.763,0-1.385,0.298-1.854,0.896
				c-0.468,0.597-0.703,1.419-0.703,2.454c0,0.488,0.063,0.939,0.185,1.348c0.115,0.407,0.291,0.757,0.52,1.045
				c0.23,0.285,0.504,0.505,0.826,0.653c0.324,0.153,0.681,0.227,1.064,0.227c0.521,0,0.966-0.12,1.336-0.361
				c0.376-0.24,0.702-0.607,0.985-1.102c0.158-0.291,0.327-0.519,0.509-0.685c0.184-0.164,0.409-0.249,0.677-0.249
				c0.315,0,0.58,0.122,0.787,0.362C439.482,759.027,439.589,759.286,439.589,759.557"/>
			<path fill="#FFFFFF" d="M450.779,757.496c0,0.77-0.122,1.484-0.355,2.139c-0.247,0.652-0.592,1.213-1.05,1.68
				c-0.455,0.469-1.002,0.827-1.632,1.078c-0.64,0.248-1.351,0.375-2.139,0.375c-0.785,0-1.493-0.127-2.121-0.383
				c-0.623-0.248-1.171-0.613-1.626-1.081c-0.46-0.478-0.81-1.034-1.053-1.677c-0.229-0.644-0.35-1.354-0.35-2.131
				c0-0.787,0.123-1.506,0.357-2.158c0.241-0.654,0.589-1.213,1.038-1.674c0.451-0.461,0.993-0.816,1.632-1.069
				c0.644-0.249,1.35-0.374,2.121-0.374c0.784,0,1.497,0.125,2.139,0.381c0.639,0.252,1.184,0.615,1.644,1.08
				c0.458,0.476,0.804,1.029,1.04,1.672C450.659,756.004,450.779,756.713,450.779,757.496 M448.176,757.496
				c0-1.06-0.233-1.881-0.697-2.469c-0.464-0.597-1.09-0.89-1.873-0.89c-0.51,0-0.956,0.134-1.345,0.396
				c-0.387,0.262-0.681,0.648-0.89,1.164c-0.209,0.514-0.315,1.112-0.315,1.799c0,0.679,0.104,1.268,0.311,1.773
				c0.208,0.51,0.502,0.896,0.886,1.166c0.386,0.266,0.835,0.403,1.354,0.403c0.783,0,1.409-0.297,1.874-0.893
				C447.941,759.357,448.176,758.537,448.176,757.496"/>
			<path fill="#FFFFFF" d="M460.672,757.688v3.445c0,0.547-0.121,0.951-0.37,1.228c-0.25,0.272-0.57,0.407-0.978,0.407
				c-0.394,0-0.714-0.135-0.951-0.407c-0.247-0.275-0.372-0.681-0.372-1.228v-4.131c0-0.653-0.021-1.162-0.063-1.525
				c-0.047-0.353-0.17-0.653-0.362-0.882c-0.197-0.234-0.51-0.353-0.933-0.353c-0.851,0-1.405,0.291-1.677,0.882
				c-0.267,0.576-0.404,1.413-0.404,2.507v3.502c0,0.538-0.123,0.946-0.361,1.225c-0.25,0.271-0.568,0.41-0.966,0.41
				c-0.396,0-0.718-0.139-0.968-0.41c-0.251-0.277-0.376-0.687-0.376-1.225v-7.42c0-0.488,0.111-0.859,0.336-1.111
				c0.229-0.256,0.525-0.381,0.89-0.381c0.355,0,0.65,0.123,0.893,0.355c0.235,0.238,0.354,0.565,0.354,0.983v0.244
				c0.453-0.534,0.935-0.931,1.443-1.18c0.518-0.26,1.082-0.387,1.715-0.387c0.649,0,1.21,0.132,1.677,0.391
				c0.47,0.26,0.854,0.654,1.161,1.176c0.438-0.526,0.907-0.922,1.408-1.18s1.055-0.387,1.662-0.387c0.706,0,1.321,0.144,1.834,0.42
				c0.512,0.277,0.895,0.68,1.147,1.194c0.221,0.474,0.33,1.211,0.33,2.218v5.063c0,0.547-0.121,0.951-0.367,1.228
				c-0.246,0.272-0.574,0.407-0.979,0.407c-0.396,0-0.716-0.139-0.967-0.411c-0.25-0.276-0.376-0.686-0.376-1.224v-4.361
				c0-0.559-0.022-1.004-0.068-1.338c-0.048-0.338-0.178-0.62-0.383-0.847c-0.213-0.229-0.53-0.345-0.952-0.345
				c-0.343,0-0.666,0.106-0.976,0.309c-0.307,0.198-0.547,0.478-0.721,0.813C460.77,755.801,460.672,756.576,460.672,757.688"/>
		</g>
		<g>
			<path fill="#FFFFFF" d="M339.967,756.867c-0.002-0.004-0.002-0.009-0.002-0.019C339.965,756.858,339.965,756.863,339.967,756.867
				z"/>
			<path fill="#FFFFFF" d="M340.098,757.697c0.002,0,0.002,0,0.003,0c-0.05-0.236-0.088-0.472-0.118-0.702
				C340.012,757.229,340.051,757.463,340.098,757.697z"/>
			<path fill="#FFFFFF" d="M340.956,760.104c-0.006-0.01-0.011-0.021-0.017-0.032C340.945,760.082,340.95,760.094,340.956,760.104z"
				/>
			<path fill="#FFFFFF" d="M340.874,759.943c-0.022-0.044-0.044-0.091-0.065-0.136C340.83,759.856,340.852,759.899,340.874,759.943z
				"/>
			<path fill="#FFFFFF" d="M340.339,758.624c0.127,0.4,0.28,0.788,0.457,1.158c-0.18-0.378-0.33-0.768-0.454-1.158
				C340.341,758.624,340.34,758.624,340.339,758.624z"/>
			<path fill="#FFFFFF" d="M350.004,746.932c0.501,0,0.871,0.039,1.294,0.111l0.12-0.764c0,0-1.17-0.359-2.71-0.233l-0.121-0.415
				c0.479-0.102,0.838-0.525,0.838-1.035c0-0.582-0.474-1.053-1.057-1.053s-1.056,0.471-1.056,1.053c0,0.51,0.357,0.935,0.836,1.035
				l0.134,0.463c-1.634,0.226-2.936,0.861-2.936,0.861l0.23,0.706c0.989-0.329,1.846-0.529,2.624-0.614
				C348.964,746.967,349.537,746.932,350.004,746.932z"/>
			<path fill="#FFFFFF" d="M340.938,750.789l0.006-0.007c0.039-0.05,0.075-0.098,0.112-0.145l-0.313-0.225l-0.488-0.356
				c-0.026,0.038-0.795,0.743-1.4,2.049c-0.025-0.041-0.057-0.081-0.091-0.119c-0.182-0.199-0.436-0.301-0.758-0.295
				c-0.004,0-0.009,0-0.015,0c-0.2,0-0.337-0.066-0.427-0.146c0.089-0.113,0.143-0.256,0.143-0.413c0-0.368-0.3-0.669-0.669-0.669
				s-0.668,0.301-0.668,0.669c0,0.37,0.3,0.669,0.668,0.669c0.058,0,0.113-0.01,0.167-0.021c0.165,0.184,0.425,0.342,0.808,0.334
				c0.197-0.001,0.342,0.049,0.438,0.155c0.111,0.121,0.147,0.297,0.16,0.429c-0.001,0.002-0.001,0.004-0.003,0.004
				c-0.437,1.189-0.312,2.67-0.312,2.67l1.058,0.043c0.021-0.539,0.099-1.482,0.371-2.23
				C340.25,751.734,340.91,750.828,340.938,750.789z"/>
			<path fill="#FFFFFF" d="M359.203,747.815c-0.368,0-0.669,0.298-0.669,0.669c0,0.057,0.009,0.11,0.022,0.165
				c-0.184,0.166-0.343,0.427-0.337,0.81c0.003,0.198-0.048,0.341-0.153,0.438c-0.085,0.074-0.191,0.115-0.295,0.142
				c-0.787-1.104-1.758-1.775-1.758-1.775l-0.759,0.813c0.574,0.521,1.159,1.175,1.729,1.99c0.394,0.563,0.799,1.289,1.136,2.015
				l1.023-0.486c0,0-0.468-1.155-1.126-2.19c0.114-0.04,0.229-0.104,0.331-0.193c0.201-0.18,0.3-0.436,0.293-0.758
				c-0.002-0.207,0.067-0.349,0.148-0.441c0.114,0.088,0.257,0.145,0.412,0.145c0.371,0,0.67-0.301,0.67-0.669
				C359.873,748.113,359.574,747.815,359.203,747.815z"/>
			<path fill="#FFFFFF" d="M356.547,757.018c-1.41,0.688-3.729,1.595-6.782,2.021c-1.197,0.166-2.358,0.227-3.428,0.227
				c-1.391,0-2.62-0.103-3.563-0.223c-1.076-0.135-1.917-0.301-2.433-0.417c0.124,0.392,0.273,0.78,0.454,1.158
				c0.003,0.009,0.008,0.021,0.013,0.025c0.021,0.045,0.043,0.092,0.065,0.136c0.021,0.044,0.043,0.086,0.065,0.127
				c0.006,0.012,0.011,0.022,0.017,0.033c0.303,0.569,0.667,1.094,1.081,1.549c1.439,1.573,2.907,1.823,2.921,1.826l0.023,0.003
				l0.021,0.007c0.013,0.006,1.314,0.426,3.292,0.426c1.945,0,3.854-0.393,5.673-1.168c1.349-0.688,2.622-1.736,3.254-2.67
				c0.489-0.722,0.842-1.492,1.051-2.293c0.11-0.426,0.198-1.107,0.146-1.825C358.022,756.225,357.395,756.604,356.547,757.018z"/>
			<path fill="#FFFFFF" d="M341.389,751.124c-0.041,0.06-0.651,0.925-1.135,2.253c-0.362,0.994-0.346,2.443-0.346,2.46v0.003
				c0,0.34,0.019,0.677,0.057,1.01c0,0.01,0,0.015,0.002,0.019c0.004,0.044,0.011,0.084,0.016,0.128
				c0.029,0.23,0.068,0.466,0.118,0.702c0.7,0.178,4.878,1.151,9.549,0.502c2.927-0.408,5.148-1.273,6.499-1.927
				c1.12-0.544,1.842-1.036,2.119-1.239c-0.276-1.027-1.041-2.642-1.741-3.646c-2.007-2.864-4.168-3.601-5.278-3.782
				c-0.423-0.069-0.762-0.109-1.243-0.109c-0.447,0-1.002,0.036-1.743,0.114c-0.743,0.077-1.571,0.271-2.532,0.596
				c-1.348,0.451-2.566,1.158-3.526,2.048l-0.033,0.03C342.027,750.414,341.73,750.689,341.389,751.124z M353.658,750.457
				c0.961,0,1.743,0.781,1.743,1.743s-0.782,1.744-1.743,1.744s-1.742-0.782-1.742-1.744S352.697,750.457,353.658,750.457z
				 M345.417,750.388c1.557,0,2.817,1.263,2.817,2.817s-1.261,2.814-2.817,2.814c-1.555,0-2.816-1.261-2.816-2.814
				C342.601,751.649,343.862,750.388,345.417,750.388z"/>
		</g>
	</g>
</g>
<g id="OBJECTS">
	<g>
		<g>
			<g>
				<polyline fill="#747678" points="465.958,545.429 397.513,584.944 397.513,592.101 465.958,552.619 465.958,545.429 				"/>
				<polyline fill="#8B9092" points="394.166,583.021 394.18,590.132 397.513,592.101 397.513,584.944 394.166,583.021 				"/>
				<polyline fill="#ADAFB0" points="462.609,543.498 462.609,543.498 394.166,583.021 397.513,584.944 465.958,545.429 
					462.609,543.498 				"/>
			</g>
			<g>
				<polyline fill="#747678" points="453.509,538.177 385.063,577.692 385.063,584.849 453.509,545.367 453.509,538.177 				"/>
				<polyline fill="#8B9092" points="381.717,575.771 381.73,582.88 385.063,584.849 385.063,577.692 381.717,575.771 				"/>
				<polyline fill="#ADAFB0" points="450.16,536.246 450.16,536.246 381.717,575.771 381.717,575.771 385.063,577.692 
					453.509,538.177 450.16,536.246 				"/>
			</g>
			<g>
				<polyline fill="#747678" points="441.175,531.094 372.73,570.609 372.73,577.766 441.175,538.284 441.175,531.094 				"/>
				<polyline fill="#8B9092" points="369.383,568.688 369.397,575.797 372.73,577.766 372.73,570.609 369.383,568.688 				"/>
				<polyline fill="#ADAFB0" points="437.827,529.163 369.383,568.688 372.73,570.609 441.175,531.094 437.827,529.163 				"/>
			</g>
			<path fill="#A0A7AD" d="M561.476,547.81L183.89,329.778c-8.663-5.002-13.999-14.245-13.999-24.248V65.693
				c0-10.771,11.655-17.508,20.988-12.131l377.574,217.523c8.676,4.998,14.022,14.25,14.022,24.262v240.337
				C582.477,546.463,570.81,553.198,561.476,547.81"/>
			<path fill="#A0A7AD" d="M322.138,419.441l0.117,36.243c0.028,8.604-4.551,16.563-12.001,20.863l-31.519,18.192l87.123,50.297
				l31.608-18.171c7.452-4.28,12.047-12.22,12.047-20.813V469.66L322.138,419.441"/>
			<polygon fill="#A0A7AD" points="566.797,552.284 575.021,548.061 567.938,538.174 			"/>
			<polygon fill="#A0A7AD" points="176.708,53.677 168.323,57.987 172.508,57.95 			"/>
			<path fill="#E0E0E2" d="M552.637,552.379L175.051,334.348c-8.663-5.001-13.999-14.245-13.999-24.248V70.263
				c0-10.771,11.655-17.508,20.988-12.131l377.574,217.523c8.676,4.998,14.022,14.249,14.022,24.262v240.337
				C573.638,551.033,561.97,557.769,552.637,552.379"/>
			<polyline fill="#D0F1F7" points="179.72,78.779 179.72,308.231 553.43,524.002 553.43,293.684 179.72,78.779 			"/>
			<polyline fill="#F37C54" points="198.446,110.079 198.441,141.66 415.529,266.856 415.52,235.267 198.446,110.079 			"/>
			<polyline fill="#5CD2D2" points="198.563,153.925 198.538,240.218 266.873,279.58 266.948,193.438 198.563,153.925 			"/>
			<polyline fill="#CF3A52" points="279.279,207.721 279.169,293.754 347.722,333.455 347.745,247.229 279.279,207.721 			"/>
			<path fill="#E3516E" d="M294.254,287.493l-0.002,0.001l6.15,3.551v-0.005L294.254,287.493 M279.279,207.721l-0.109,86.033
				l15.061,8.722l0.021-14.981l-0.289-0.166l-1.634,0.758l-0.348-0.725l0.997-0.6l6.198-3.608l1.24,0.716l4.406,2.546l0,0
				l0.831,0.48l1.031,0.596l8.214,4.747l4.126,2.382v0.002l0.003,0.002l5.109,5.353c0.389,0.406,0.915,0.619,1.447,0.619
				c0.341,0,0.685-0.087,0.997-0.267l4.813-2.77l6.292,3.552l-11.235,6.513c-0.313,0.181-0.658,0.27-1.003,0.27
				c-0.45,0-0.897-0.152-1.263-0.449l-5.157-4.194l0,0l5.157,4.194c0.365,0.296,0.813,0.448,1.263,0.448
				c0.345,0,0.69-0.089,1.002-0.27l11.235-6.514v4.154l-11.242,6.507c-0.312,0.18-0.657,0.269-1.001,0.269
				c-0.447,0-0.892-0.149-1.256-0.442l-5.159-4.153v9.39l28.694,16.618l0.023-86.226L279.279,207.721"/>
			<polyline fill="#4F9CD0" points="372.593,254.364 372.567,340.657 441.072,380.116 441.317,294 372.593,254.364 			"/>
			<polyline fill="#FFE54D" points="459.76,304.697 459.752,455.6 528.207,495.124 528.484,344.333 459.76,304.697 			"/>
			<polyline fill="#8F959B" points="403.288,466.14 403.288,473.295 409.448,469.697 403.288,466.14 			"/>
			<polyline fill="#B5B5B7" points="403.288,466.07 403.288,466.14 409.448,469.697 409.513,469.66 403.288,466.07 			"/>
			<path fill="#A0A7AD" d="M364.263,430.765c0,3.566-2.892,4.792-6.458,2.737c-3.565-2.055-6.458-6.612-6.458-10.18
				c0-3.566,2.893-4.792,6.458-2.737C361.371,422.641,364.263,427.197,364.263,430.765z"/>
			<polyline fill="#C76746" points="417.576,234.086 415.517,235.262 415.529,266.856 417.538,265.635 417.576,234.086 			"/>
			<polygon fill="#A0A7AD" points="183.693,81.063 183.693,310.525 179.72,308.231 179.72,78.779 			"/>
			<polyline fill="#A0A7AD" points="183.696,305.988 553.43,519.424 553.43,523.996 179.72,308.268 183.696,305.988 			"/>
			<polyline fill="#5CD2D2" points="198.393,153.811 201.638,151.976 270.076,191.517 270.117,277.684 266.873,279.58 
				266.948,193.438 198.393,153.811 			"/>
			<polyline fill="#4BAEAF" points="270.076,191.517 266.948,193.438 266.873,279.564 270.117,277.684 270.076,191.517 			"/>
			<polyline fill="#9FE5E5" points="201.638,151.976 198.393,153.811 266.948,193.438 270.076,191.517 201.638,151.976 			"/>
			<polyline fill="#20AAE0" points="279.279,207.721 288.724,202.268 357.132,241.811 357.071,328.084 347.722,333.455 
				347.745,247.229 279.279,207.721 			"/>
			<polyline fill="#CF3A52" points="279.279,207.721 288.724,202.268 357.132,241.811 347.745,247.229 279.279,207.721 			"/>
			<polyline fill="#F6678A" points="288.724,202.268 279.279,207.721 347.745,247.229 357.132,241.811 288.724,202.268 			"/>
			<polygon fill="#CF3A52" points="357.132,241.811 357.071,328.084 347.722,333.455 347.745,247.229 			"/>
			<polyline fill="#4F9CD0" points="372.593,254.363 375.838,252.527 444.275,292.069 444.317,378.234 441.072,380.116 
				441.316,293.999 372.593,254.363 			"/>
			<polyline fill="#4181AD" points="444.275,292.069 441.316,293.999 441.072,380.116 444.317,378.234 444.275,292.069 			"/>
			<polyline fill="#97C5E4" points="375.838,252.527 372.593,254.363 441.316,293.999 444.275,292.069 375.838,252.527 			"/>
			<polyline fill="#F2C06B" points="459.752,304.693 462.997,302.858 531.435,342.399 531.46,493.25 528.215,495.13 
				528.146,344.139 459.752,304.693 			"/>
			<polyline fill="#E5F4F7" points="531.435,342.399 531.435,342.399 531.46,493.25 531.46,493.246 531.435,342.399 			"/>
			<polyline fill="#D1D3D4" points="531.435,342.399 531.435,342.399 531.46,493.25 531.46,493.246 531.435,342.399 			"/>
			<polyline fill="#E8CE4D" points="531.435,342.399 528.146,344.139 528.215,495.127 531.46,493.246 531.435,342.399 			"/>
			<polyline fill="#F8B29B" points="200.514,108.85 198.404,110.069 415.517,235.262 417.576,234.086 200.514,108.85 			"/>
			<polyline fill="#F8DAA9" points="462.997,302.858 459.752,304.693 528.146,344.139 531.435,342.399 462.997,302.858 			"/>
			<polyline fill="#E5F4F7" points="198.389,254.415 198.386,261.602 266.838,301.118 266.838,293.934 198.389,254.415 			"/>
			<polyline fill="#909193" points="198.389,254.415 198.386,261.602 266.838,301.118 266.838,293.934 198.389,254.415 			"/>
			<polyline fill="#E5F4F7" points="270.161,292 266.838,293.934 266.838,301.118 270.095,299.214 270.161,292 			"/>
			<polyline fill="#758082" points="270.161,292 266.838,293.934 266.838,301.118 270.095,299.214 270.161,292 			"/>
			<polyline fill="#E5F4F7" points="201.711,252.48 198.389,254.415 266.838,293.934 270.161,292 201.711,252.48 			"/>
			<polyline fill="#ADB5B6" points="201.711,252.48 198.389,254.415 266.838,293.934 270.161,292 201.711,252.48 			"/>
			<polyline fill="#E5F4F7" points="198.389,268.79 198.386,275.977 266.838,315.493 266.838,308.309 198.389,268.79 			"/>
			<polyline fill="#909193" points="198.389,268.79 198.386,275.977 266.838,315.493 266.838,308.309 198.389,268.79 			"/>
			<polyline fill="#E5F4F7" points="270.161,306.375 266.838,308.309 266.838,315.493 270.095,313.589 270.161,306.375 			"/>
			<polyline fill="#758082" points="270.161,306.375 266.838,308.309 266.838,315.493 270.095,313.589 270.161,306.375 			"/>
			<polyline fill="#E5F4F7" points="201.711,266.856 198.389,268.79 266.838,308.309 270.161,306.375 201.711,266.856 			"/>
			<polyline fill="#ADB5B6" points="201.711,266.856 198.389,268.79 266.838,308.309 270.161,306.375 201.711,266.856 			"/>
			<polyline fill="#E5F4F7" points="198.389,283.152 198.386,290.339 266.838,329.855 266.838,322.671 198.389,283.152 			"/>
			<polyline fill="#909193" points="198.389,283.152 198.386,290.339 266.838,329.855 266.838,322.671 198.389,283.152 			"/>
			<polyline fill="#E5F4F7" points="270.161,320.737 266.838,322.671 266.838,329.855 270.095,327.951 270.161,320.737 			"/>
			<polyline fill="#758082" points="270.161,320.737 266.838,322.671 266.838,329.855 270.095,327.951 270.161,320.737 			"/>
			<polyline fill="#E5F4F7" points="201.711,281.218 198.389,283.152 266.838,322.671 270.161,320.737 201.711,281.218 			"/>
			<polyline fill="#ADB5B6" points="201.711,281.218 198.389,283.152 266.838,322.671 270.161,320.737 201.711,281.218 			"/>
			<polyline fill="#E5F4F7" points="198.389,297.523 198.386,304.71 266.838,344.227 266.838,337.042 198.389,297.523 			"/>
			<polyline fill="#909193" points="198.389,297.523 198.386,304.71 266.838,344.227 266.838,337.042 198.389,297.523 			"/>
			<polyline fill="#E5F4F7" points="270.161,335.108 266.838,337.042 266.838,344.227 270.095,342.322 270.161,335.108 			"/>
			<polyline fill="#758082" points="270.161,335.108 266.838,337.042 266.838,344.227 270.095,342.322 270.161,335.108 			"/>
			<polyline fill="#E5F4F7" points="201.711,295.589 198.389,297.523 266.838,337.042 270.161,335.108 201.711,295.589 			"/>
			<polyline fill="#ADB5B6" points="201.711,295.589 198.389,297.523 266.838,337.042 270.161,335.108 201.711,295.589 			"/>
			<path fill="#E5F4F7" d="M319.027,324.071v7.187l15.991,9.232l2.417-1.423l6.25,3.633l-0.55,2.475l10.813,6.241v-7.184
				L319.027,324.071 M285.498,304.713l-0.003,7.187l8.715,5.031l0.01-7.182L285.498,304.713"/>
			<path fill="#909193" d="M319.027,324.071v7.187l15.991,9.232l2.417-1.423l6.25,3.633l-0.55,2.475l10.813,6.241v-7.184
				L319.027,324.071 M285.498,304.713l-0.003,7.187l8.715,5.031l0.01-7.182L285.498,304.713"/>
			<polyline fill="#E5F4F7" points="357.27,342.298 353.947,344.232 353.947,351.416 357.203,349.512 357.27,342.298 			"/>
			<polyline fill="#758082" points="357.27,342.298 353.947,344.232 353.947,351.416 357.203,349.512 357.27,342.298 			"/>
			<path fill="#E5F4F7" d="M319.027,320.218v3.853l34.92,20.161l3.321-1.934L319.027,320.218 M288.82,302.779l-3.322,1.934
				l8.722,5.036l0.005-3.849L288.82,302.779"/>
			<path fill="#ADB5B6" d="M319.027,320.218v3.853l34.92,20.161l3.321-1.934L319.027,320.218 M288.82,302.779l-3.322,1.934
				l8.722,5.036l0.005-3.849L288.82,302.779"/>
			<path fill="#E5F4F7" d="M341.72,351.547l-1.414,6.369l13.643,7.875v-7.184L341.72,351.547 M312.863,334.887v6.467l-9.752-5.621
				l-0.14,0.63l32.578,18.807l1.417-6.368L312.863,334.887 M285.498,319.088l-0.003,7.187l6.465,3.732l1.416-6.371L285.498,319.088"
				/>
			<path fill="#909193" d="M341.72,351.547l-1.414,6.369l13.643,7.875v-7.184L341.72,351.547 M312.863,334.887v6.467l-9.752-5.621
				l-0.14,0.63l32.578,18.807l1.417-6.368L312.863,334.887 M285.498,319.088l-0.003,7.187l6.465,3.732l1.416-6.371L285.498,319.088"
				/>
			<polyline fill="#E5F4F7" points="357.27,356.672 353.947,358.607 353.947,365.791 357.203,363.887 357.27,356.672 			"/>
			<polyline fill="#758082" points="357.27,356.672 353.947,358.607 353.947,365.791 357.203,363.887 357.27,356.672 			"/>
			<path fill="#E5F4F7" d="M342.479,348.133l-0.759,3.415l12.229,7.06l3.321-1.935L342.479,348.133 M312.863,334.183v0.704
				l24.102,13.915l0.55-2.47l-6.25-3.633l0.893-0.525l-13.13-7.581v3.142l-0.003-0.002l0,0L312.863,334.183 M288.82,317.154
				l-3.322,1.934l7.878,4.548l0.562-2.528l0.266-0.157l0.001-0.689L288.82,317.154"/>
			<path fill="#ADB5B6" d="M342.479,348.133l-0.759,3.415l12.229,7.06l3.321-1.935L342.479,348.133 M312.863,334.183v0.704
				l24.102,13.915l0.55-2.47l-6.25-3.633l0.893-0.525l-13.13-7.581v3.142l-0.003-0.002l0,0L312.863,334.183 M288.82,317.154
				l-3.322,1.934l7.878,4.548l0.562-2.528l0.266-0.157l0.001-0.689L288.82,317.154"/>
			<path fill="#E5F4F7" d="M332.842,367.325l-0.559,0.323l0.431,0.248L332.842,367.325 M338.893,364.277l-1.415,6.369l16.471,9.508
				v-7.184L338.893,364.277 M285.498,333.45l-0.003,7.187l3.635,2.099l1.416-6.371L285.498,333.45"/>
			<path fill="#909193" d="M332.842,367.325l-0.559,0.323l0.431,0.248L332.842,367.325 M338.893,364.277l-1.415,6.369l16.471,9.508
				v-7.184L338.893,364.277 M285.498,333.45l-0.003,7.187l3.635,2.099l1.416-6.371L285.498,333.45"/>
			<polyline fill="#E5F4F7" points="357.27,371.035 353.947,372.969 353.947,380.152 357.203,378.249 357.27,371.035 			"/>
			<polyline fill="#758082" points="357.27,371.035 353.947,372.969 353.947,380.152 357.203,378.249 357.27,371.035 			"/>
			<path fill="#E5F4F7" d="M339.65,360.863l-0.759,3.414l15.056,8.691l3.321-1.934L339.65,360.863 M302.316,339.308l-0.198,0.891
				l0.015,0.009l0.005-0.003l32.569,18.74l0.185-0.83L302.316,339.308 M288.82,331.516l-3.322,1.934l5.048,2.915l0.759-3.415
				L288.82,331.516"/>
			<path fill="#ADB5B6" d="M339.65,360.863l-0.759,3.414l15.056,8.691l3.321-1.934L339.65,360.863 M302.316,339.308l-0.198,0.891
				l0.015,0.009l0.005-0.003l32.569,18.74l0.185-0.83L302.316,339.308 M288.82,331.516l-3.322,1.934l5.048,2.915l0.759-3.415
				L288.82,331.516"/>
			<path fill="#E5F4F7" d="M336.063,377.016l-1.414,6.368l19.299,11.142v-7.186L336.063,377.016 M298.728,355.459l-1.415,6.371
				l32.567,18.801l1.417-6.367L298.728,355.459 M285.498,347.821l-0.003,7.187l0.804,0.465l1.417-6.372L285.498,347.821"/>
			<path fill="#909193" d="M336.063,377.016l-1.414,6.368l19.299,11.142v-7.186L336.063,377.016 M298.728,355.459l-1.415,6.371
				l32.567,18.801l1.417-6.367L298.728,355.459 M285.498,347.821l-0.003,7.187l0.804,0.465l1.417-6.372L285.498,347.821"/>
			<polyline fill="#E5F4F7" points="357.27,385.406 353.947,387.34 353.947,394.523 357.203,392.62 357.27,385.406 			"/>
			<polyline fill="#758082" points="357.27,385.406 353.947,387.34 353.947,394.523 357.203,392.62 357.27,385.406 			"/>
			<path fill="#E5F4F7" d="M336.821,373.6l-0.759,3.416l17.885,10.324l3.321-1.934L336.821,373.6 M299.302,352.877l-0.574,2.582
				l32.57,18.805l0.76-3.414l-2.658-1.535l-0.812,0.469l-0.004-0.939l0.004,0.939L299.302,352.877 M288.372,346.148l-2.874,1.673
				l2.217,1.28L288.372,346.148"/>
			<path fill="#ADB5B6" d="M336.821,373.6l-0.759,3.416l17.885,10.324l3.321-1.934L336.821,373.6 M299.302,352.877l-0.574,2.582
				l32.57,18.805l0.76-3.414l-2.658-1.535l-0.812,0.469l-0.004-0.939l0.004,0.939L299.302,352.877 M288.372,346.148l-2.874,1.673
				l2.217,1.28L288.372,346.148"/>
			<polyline fill="#E5F4F7" points="372.637,355.055 372.634,362.242 441.087,401.759 441.087,394.574 372.637,355.055 			"/>
			<polyline fill="#909193" points="372.637,355.055 372.634,362.242 441.087,401.759 441.087,394.574 372.637,355.055 			"/>
			<polyline fill="#E5F4F7" points="444.409,392.641 441.087,394.574 441.087,401.759 444.343,399.854 444.409,392.641 			"/>
			<polyline fill="#758082" points="444.409,392.641 441.087,394.574 441.087,401.759 444.343,399.854 444.409,392.641 			"/>
			<polyline fill="#E5F4F7" points="375.959,353.121 372.637,355.055 441.087,394.574 444.409,392.641 375.959,353.121 			"/>
			<polyline fill="#ADB5B6" points="375.959,353.121 372.637,355.055 441.087,394.574 444.409,392.641 375.959,353.121 			"/>
			<polyline fill="#E5F4F7" points="372.637,369.43 372.634,376.617 441.087,416.134 441.087,408.949 372.637,369.43 			"/>
			<polyline fill="#909193" points="372.637,369.43 372.634,376.617 441.087,416.134 441.087,408.949 372.637,369.43 			"/>
			<polyline fill="#E5F4F7" points="444.409,407.015 441.087,408.949 441.087,416.134 444.343,414.229 444.409,407.015 			"/>
			<polyline fill="#758082" points="444.409,407.015 441.087,408.949 441.087,416.134 444.343,414.229 444.409,407.015 			"/>
			<polyline fill="#E5F4F7" points="375.959,367.496 372.637,369.43 441.087,408.949 444.409,407.015 375.959,367.496 			"/>
			<polyline fill="#ADB5B6" points="375.959,367.496 372.637,369.43 441.087,408.949 444.409,407.015 375.959,367.496 			"/>
			<polyline fill="#E5F4F7" points="372.637,383.792 372.634,390.979 441.087,430.496 441.087,423.313 372.637,383.792 			"/>
			<polyline fill="#909193" points="372.637,383.792 372.634,390.979 441.087,430.496 441.087,423.313 372.637,383.792 			"/>
			<polyline fill="#E5F4F7" points="444.409,421.377 441.087,423.313 441.087,430.496 444.343,428.592 444.409,421.377 			"/>
			<polyline fill="#758082" points="444.409,421.377 441.087,423.313 441.087,430.496 444.343,428.592 444.409,421.377 			"/>
			<polyline fill="#E5F4F7" points="375.959,381.857 372.637,383.792 441.087,423.313 444.409,421.377 375.959,381.857 			"/>
			<polyline fill="#ADB5B6" points="375.959,381.857 372.637,383.792 441.087,423.313 444.409,421.377 375.959,381.857 			"/>
			<polyline fill="#E5F4F7" points="372.637,398.163 372.634,405.351 441.087,444.867 441.087,437.683 372.637,398.163 			"/>
			<polyline fill="#909193" points="372.637,398.163 372.634,405.351 441.087,444.867 441.087,437.683 372.637,398.163 			"/>
			<polyline fill="#E5F4F7" points="444.409,435.748 441.087,437.683 441.087,444.867 444.343,442.963 444.409,435.748 			"/>
			<polyline fill="#758082" points="444.409,435.748 441.087,437.683 441.087,444.867 444.343,442.963 444.409,435.748 			"/>
			<polyline fill="#E5F4F7" points="375.959,396.229 372.637,398.163 441.087,437.683 444.409,435.748 375.959,396.229 			"/>
			<polyline fill="#ADB5B6" points="375.959,396.229 372.637,398.163 441.087,437.683 444.409,435.748 375.959,396.229 			"/>
			<path fill="#E0E0E2" d="M315.913,415.845l0.124,38.563c0.022,7.169-3.792,13.802-10.001,17.386l-27.301,15.76l87.119,50.298
				l27.396-15.733c6.21-3.566,10.039-10.183,10.039-17.343v-38.711L315.913,415.845"/>
			<polyline fill="#A0A7AD" points="278.731,487.553 278.731,494.741 284.959,491.146 278.731,487.553 			"/>
			<polyline fill="#E4E4E5" points="315.924,419.747 315.933,422.857 315.936,422.859 315.926,419.748 315.924,419.747 			"/>
			<path fill="#B5B5B7" d="M326.131,421.721l-0.846,3.811l-2.352,1.37l80.35,46.396v-7.229L326.131,421.721 M317.275,416.63
				l0.018,3.907l-1.368-0.789l0.01,3.111l4.028,2.325l1.383-6.215l-0.673-0.387l-3.38,1.953L317.275,416.63"/>
			<polyline fill="#EB4517" points="164.368,509.784 12.555,422.201 12.555,393.434 164.368,481.016 164.368,509.784 			"/>
			<polyline fill="#F37C54" points="164.368,509.784 12.555,422.201 12.555,393.434 164.368,481.016 164.368,509.784 			"/>
			<polyline fill="#FFFFFF" points="16.341,405.728 14.852,404.868 14.852,394.758 16.341,395.616 16.341,405.728 			"/>
			<polyline fill="#FFFFFF" points="20.079,407.884 18.59,407.024 18.59,396.914 20.079,397.773 20.079,407.884 			"/>
			<polyline fill="#FFFFFF" points="23.816,410.04 22.328,409.181 22.328,399.07 23.816,399.93 23.816,410.04 			"/>
			<polyline fill="#FFFFFF" points="27.554,412.196 26.065,411.338 26.065,401.228 27.554,402.086 27.554,412.196 			"/>
			<polyline fill="#FFFFFF" points="35.03,416.51 33.542,415.65 33.542,405.54 35.03,406.398 35.03,416.51 			"/>
			<polyline fill="#FFFFFF" points="38.768,418.666 37.279,417.807 37.279,407.696 38.768,408.556 38.768,418.666 			"/>
			<polyline fill="#FFFFFF" points="42.506,420.822 41.017,419.963 41.017,409.854 42.506,410.712 42.506,420.822 			"/>
			<polyline fill="#FFFFFF" points="46.244,422.979 44.755,422.12 44.755,412.01 46.244,412.868 46.244,422.979 			"/>
			<polyline fill="#FFFFFF" points="53.72,427.292 52.231,426.433 52.231,416.322 53.72,417.182 53.72,427.292 			"/>
			<polyline fill="#FFFFFF" points="57.458,429.448 55.969,428.589 55.969,418.479 57.458,419.338 57.458,429.448 			"/>
			<polyline fill="#FFFFFF" points="61.195,431.604 59.707,430.746 59.707,420.635 61.195,421.494 61.195,431.604 			"/>
			<polyline fill="#FFFFFF" points="64.934,433.761 63.444,432.902 63.444,422.791 64.934,423.65 64.934,433.761 			"/>
			<polyline fill="#FFFFFF" points="72.409,438.074 70.92,437.215 70.92,427.104 72.409,427.963 72.409,438.074 			"/>
			<polyline fill="#FFFFFF" points="76.147,440.23 74.658,439.371 74.658,429.261 76.147,430.12 76.147,440.23 			"/>
			<polyline fill="#FFFFFF" points="79.885,442.387 78.396,441.528 78.396,431.417 79.885,432.276 79.885,442.387 			"/>
			<polyline fill="#FFFFFF" points="83.623,444.543 82.134,443.685 82.134,433.574 83.623,434.433 83.623,444.543 			"/>
			<polyline fill="#FFFFFF" points="91.099,448.856 89.61,447.997 89.61,437.887 91.099,438.746 91.099,448.856 			"/>
			<polyline fill="#FFFFFF" points="94.836,451.013 93.348,450.153 93.348,440.043 94.836,440.902 94.836,451.013 			"/>
			<polyline fill="#FFFFFF" points="98.574,453.169 97.085,452.311 97.085,442.199 98.574,443.059 98.574,453.169 			"/>
			<polyline fill="#FFFFFF" points="102.313,455.325 100.823,454.467 100.823,444.356 102.313,445.215 102.313,455.325 			"/>
			<polyline fill="#FFFFFF" points="109.788,459.639 108.299,458.779 108.299,448.669 109.788,449.528 109.788,459.639 			"/>
			<polyline fill="#FFFFFF" points="113.526,461.795 112.037,460.936 112.037,450.825 113.526,451.685 113.526,461.795 			"/>
			<polyline fill="#FFFFFF" points="117.264,463.951 115.775,463.093 115.775,452.982 117.264,453.841 117.264,463.951 			"/>
			<polyline fill="#FFFFFF" points="121.001,466.107 119.513,465.249 119.513,455.139 121.001,455.997 121.001,466.107 			"/>
			<polyline fill="#FFFFFF" points="128.478,470.421 126.989,469.563 126.989,459.451 128.478,460.311 128.478,470.421 			"/>
			<polyline fill="#FFFFFF" points="132.215,472.577 130.727,471.719 130.727,461.607 132.215,462.467 132.215,472.577 			"/>
			<polyline fill="#FFFFFF" points="135.953,474.733 134.464,473.875 134.464,463.764 135.953,464.623 135.953,474.733 			"/>
			<polyline fill="#FFFFFF" points="139.691,476.891 138.203,476.031 138.203,465.921 139.691,466.779 139.691,476.891 			"/>
			<polyline fill="#FFFFFF" points="147.167,481.203 145.678,480.344 145.678,470.233 147.167,471.093 147.167,481.203 			"/>
			<polyline fill="#FFFFFF" points="150.905,483.359 149.416,482.5 149.416,472.39 150.905,473.249 150.905,483.359 			"/>
			<polyline fill="#FFFFFF" points="154.643,485.516 153.154,484.657 153.154,474.547 154.643,475.405 154.643,485.516 			"/>
			<polyline fill="#FFFFFF" points="158.38,487.672 156.892,486.813 156.892,476.703 158.38,477.563 158.38,487.672 			"/>
			<polyline fill="#FFFFFF" points="31.292,418.627 29.804,417.768 29.804,403.384 31.292,404.242 31.292,418.627 			"/>
			<polyline fill="#FFFFFF" points="49.982,429.409 48.493,428.55 48.493,414.166 49.982,415.024 49.982,429.409 			"/>
			<polyline fill="#FFFFFF" points="68.671,440.191 67.183,439.332 67.183,424.948 68.671,425.807 68.671,440.191 			"/>
			<polyline fill="#FFFFFF" points="87.36,450.974 85.872,450.114 85.872,435.73 87.36,436.589 87.36,450.974 			"/>
			<polyline fill="#FFFFFF" points="106.05,461.756 104.562,460.896 104.562,446.513 106.05,447.371 106.05,461.756 			"/>
			<polyline fill="#FFFFFF" points="124.74,472.538 123.251,471.679 123.251,457.295 124.74,458.153 124.74,472.538 			"/>
			<polyline fill="#FFFFFF" points="143.429,483.32 141.94,482.461 141.94,468.077 143.429,468.936 143.429,483.32 			"/>
			<polyline fill="#FFFFFF" points="162.119,494.103 160.63,493.243 160.63,478.859 162.119,479.719 162.119,494.103 			"/>
			<polyline fill="#F37C54" points="170.805,477.701 170.805,506.367 164.368,509.784 164.368,481.016 170.805,477.701 			"/>
			<polyline fill="#C76746" points="170.805,477.701 164.368,481.016 164.368,509.784 170.805,506.367 170.805,477.701 			"/>
			<polyline fill="#F37C54" points="12.555,393.434 18.972,389.701 170.805,477.701 164.368,481.016 12.555,393.434 			"/>
			<polyline fill="#F8B29B" points="18.972,389.701 12.555,393.434 164.368,481.016 170.805,477.701 18.972,389.701 			"/>
			<path fill="#C59E78" d="M555.566,598.229c0,1.794-0.589,3.098-1.588,3.846l-0.725,0.403l-0.03,0.022
				c-1.435,0.595-3.417,0.328-5.613-0.946c-1.96-1.15-3.769-2.913-5.156-4.903l-0.008-0.009c-1.701-2.447-2.776-5.238-2.776-7.649
				c0-1.838,0.618-3.165,1.663-3.905l0.061-0.038l0.337-0.189l0.021-0.017c1.449-0.747,3.54-0.526,5.858,0.824
				c1.99,1.159,3.828,2.952,5.218,4.979l0.045,0.069C554.528,593.127,555.566,595.865,555.566,598.229"/>
			<path fill="#485654" d="M552.873,590.717l-0.511,0.198l-0.055,0.021l-4.316,2.503l-5.537,3.211l-68.122,39.455l-54.057,31.342
				l-0.009,0.008l-0.784,0.45l-10.505-6.309l0.269-0.152l132.087-76.357l0.061-0.038l0.337-0.189l0.021-0.017
				c1.449-0.747,3.54-0.525,5.858,0.824c1.99,1.159,3.828,2.952,5.218,4.979L552.873,590.717"/>
			<path fill="#A9D8D2" d="M543.627,584.419c-0.7,0-1.332,0.146-1.875,0.424l-0.021,0.017l-0.336,0.189l-0.062,0.038l-132.02,76.318
				c0.5-0.223,1.068-0.337,1.692-0.337c1.166,0,2.521,0.399,3.967,1.24c2.043,1.188,3.899,3.05,5.304,5.139l54.056-31.342
				l68.114-39.463l5.545-3.203l4.316-2.502l0.055-0.022l0.466-0.268c-1.389-2.028-3.227-3.821-5.218-4.98
				C546.159,584.822,544.798,584.419,543.627,584.419"/>
			<path fill="#9BA8A6" d="M555.566,598.229c0,1.794-0.589,3.098-1.588,3.846l-0.725,0.403l-0.03,0.022L420.9,678.889l-0.122,0.077
				v-0.022l-0.495-11.479v-0.008l54.049-31.35l68.114-39.464l5.545-3.202l4.371-2.524l0.466-0.268l0.045,0.068
				C554.528,593.127,555.566,595.865,555.566,598.229"/>
			<path fill="#485654" d="M400.643,677.313l1.532-3.144l0.067-0.136l5.263-10.761l0.191-0.396h0.008
				c1.208-2.118,4.007-2.467,7.27-0.569c2.045,1.189,3.903,3.054,5.308,5.145h0.002v0.004c1.592,2.371,2.597,5.036,2.597,7.354
				c0,2.938-1.604,4.562-3.981,4.541v0.012l-13.05-0.271h-0.124l-0.313-0.012l-3.73-0.079c-0.338-0.011-0.631-0.146-0.834-0.36
				l-0.135-0.181l-0.102-0.18C400.484,677.979,400.484,677.64,400.643,677.313"/>
			<path fill="#A9D8D2" d="M419.109,679.352c-0.045,0.001-0.093,0.002-0.139,0.002c-0.024,0-0.05,0-0.074,0l0,0
				c0.014,0,0.027,0,0.041,0C418.996,679.354,419.054,679.354,419.109,679.352 M420.837,678.92l-0.059,0.027
				c-0.326,0.162-0.688,0.279-1.078,0.346C420.111,679.226,420.492,679.101,420.837,678.92 M421.946,670.553
				c0.055,0.137,0.104,0.272,0.149,0.405l0.078,0.191c0.248,0.697,0.439,1.386,0.553,2.051c0.046,0.248,0.079,0.496,0.103,0.731
				v0.045c0.033,0.282,0.045,0.563,0.045,0.834l0,0l0,0c0,1.211-0.271,2.2-0.757,2.942c0.488-0.741,0.762-1.729,0.762-2.94
				C422.879,673.467,422.541,672.006,421.946,670.553 M420.282,667.457v0.008l0.09,0.136c0.158,0.236,0.305,0.474,0.438,0.71
				l0.058,0.078c0.169,0.293,0.338,0.599,0.483,0.892c0.158,0.304,0.306,0.607,0.439,0.912l0.008,0.016
				C421.391,669.271,420.878,668.345,420.282,667.457L420.282,667.457 M411.007,661.068c-1.464,0-2.631,0.631-3.303,1.811h-0.008
				l-0.191,0.396l-5.263,10.761l-0.067,0.136l-1.532,3.144c-0.084,0.174-0.123,0.351-0.123,0.523c0,0.152,0.031,0.303,0.09,0.445
				l0.102,0.18v0.001l2.186-1.24l2.841-1.589l0.35-0.202l3.797-2.13l9.602-5.396l0.789-0.45h0.011v-0.001h-0.002
				c-1.403-2.091-3.263-3.954-5.308-5.145C413.527,661.469,412.173,661.068,411.007,661.068"/>
			<path fill="#9BA8A6" d="M400.71,678.463l0.135,0.18c0.192,0.227,0.496,0.36,0.834,0.372l0.958,0.022l3.042,0.066h0.045v-0.011
				h0.124l13.05,0.271v-0.013c0.697,0.013,1.341-0.136,1.882-0.404l0.124-0.058c1.228-0.676,1.972-2.072,1.972-4.079
				c0-0.271-0.012-0.552-0.045-0.834v-0.045c-0.022-0.235-0.057-0.483-0.103-0.731c-0.112-0.665-0.305-1.354-0.553-2.051
				l-0.078-0.191c-0.079-0.236-0.181-0.484-0.281-0.721l-0.022-0.046c-0.135-0.305-0.281-0.608-0.439-0.912
				c-0.146-0.293-0.314-0.599-0.483-0.892l-0.058-0.078c-0.135-0.236-0.28-0.474-0.438-0.71l-0.09-0.136v-0.011h-0.011l-0.789,0.45
				l-9.602,5.396l-3.797,2.13l-0.35,0.202l-2.841,1.589L400.71,678.463"/>
			<path fill="#262729" d="M400.608,678.282l0.09,0.181h0.012l0.135,0.18c0.192,0.227,0.496,0.36,0.834,0.372l0.958,0.022
				l3.042,0.066h0.046v-0.011l0.012-3.46v-0.066l-3.562-1.397l-1.532,3.146C400.484,677.64,400.484,677.979,400.608,678.282z"/>
			<path fill="#262729" d="M402.044,674.878c0,1.341,1.087,3.062,2.429,3.841c1.343,0.78,2.43,0.325,2.43-1.016
				c0-1.342-1.087-3.063-2.43-3.842C403.131,673.081,402.044,673.536,402.044,674.878z"/>
			<polyline fill="#7F56C5" points="179.678,574.155 179.678,552.6 198.346,563.378 198.346,584.934 179.678,574.155 			"/>
			<polyline fill="#C2A9E3" points="179.678,552.6 179.678,574.155 198.346,584.934 198.346,563.378 179.678,552.6 			"/>
			<polyline fill="#7F56C5" points="179.678,552.6 198.346,541.821 217.015,552.6 198.346,563.378 179.678,552.6 			"/>
			<polyline opacity="0.8" fill="#E8DBF3" enable-background="new    " points="198.346,541.821 179.678,552.6 198.346,563.378 
				217.015,552.6 198.346,541.821 			"/>
			<polygon fill="#00A19B" points="198.346,563.378 217.015,552.6 217.015,574.156 198.346,584.934 			"/>
			<polygon fill="#7F56C5" points="198.346,563.378 217.015,552.6 217.015,574.156 198.346,584.934 			"/>
			<polygon fill="#7C98AB" points="117.595,365.739 117.595,344.183 136.263,354.961 136.263,376.518 			"/>
			<polygon fill="#A7BAC9" points="117.595,344.183 136.263,333.404 154.932,344.183 136.263,354.961 			"/>
			<polygon fill="#00A19B" points="136.263,354.961 154.932,344.183 154.932,365.739 136.263,376.518 			"/>
			<polygon fill="#5D7E95" points="136.263,354.961 154.932,344.183 154.932,365.739 136.263,376.518 			"/>
			<polyline fill="#CF3A52" points="105.095,408.989 105.095,387.434 123.763,398.211 123.763,419.768 105.095,408.989 			"/>
			<polyline fill="#E3516E" points="105.095,387.434 105.095,408.989 123.763,419.768 123.763,398.211 105.095,387.434 			"/>
			<polyline fill="#CF3A52" points="105.095,387.434 123.763,376.654 142.432,387.434 123.763,398.211 105.095,387.434 			"/>
			<polyline fill="#F6678A" points="123.763,376.654 105.095,387.434 123.763,398.211 142.432,387.434 123.763,376.654 			"/>
			<polygon fill="#CF3A52" points="123.763,398.211 142.432,387.434 142.432,408.989 123.763,419.768 			"/>
			<polyline fill="#5CD2D2" points="74.068,290.219 24.388,319.017 24.411,376.516 74.068,347.729 74.068,290.219 			"/>
			<polyline fill="#21ADAD" points="74.068,290.219 24.388,319.017 24.411,376.516 74.068,347.729 74.068,290.219 			"/>
			<polygon fill="#FFFFFF" points="105.071,631.57 154.916,602.864 204.636,631.57 154.86,660.303 			"/>
			<polygon fill="#E6E7E8" points="105.071,631.57 105.071,638.756 154.888,667.518 204.636,638.756 204.636,631.57 154.86,660.303 
							"/>
			<polygon fill="#D3D1D3" points="154.86,660.303 154.888,667.518 204.636,638.756 204.636,631.57 			"/>
			<polyline fill="#5CD2D2" points="24.411,376.516 18.013,372.768 18.013,315.517 24.388,319.017 24.411,376.516 			"/>
			<polyline fill="#8B9092" points="381.717,575.771 381.73,582.88 381.717,575.771 381.717,575.771 			"/>
			<g>
				<polyline fill="#A4DAE7" points="450.16,536.246 381.717,575.771 381.73,582.88 385.063,584.849 453.509,545.367 
					453.509,538.177 450.16,536.246 				"/>
				<polyline fill="#D3ECF3" points="381.717,575.771 381.73,582.88 385.063,584.849 385.063,577.692 381.717,575.771 				"/>
				<polyline fill="#D3ECF3" points="450.16,536.246 450.16,536.246 381.717,575.771 381.717,575.771 385.063,577.692 
					453.509,538.177 450.16,536.246 				"/>
			</g>
			<g>
				<polyline fill="#A4DAE7" points="437.827,529.163 369.383,568.688 369.397,575.797 372.73,577.766 441.175,538.284 
					441.175,531.094 437.827,529.163 				"/>
				<polyline fill="#D3ECF3" points="369.383,568.688 369.397,575.797 372.73,577.766 372.73,570.609 369.383,568.688 				"/>
				<polyline fill="#D3ECF3" points="437.827,529.163 369.383,568.688 372.73,570.609 441.175,531.094 437.827,529.163 				"/>
			</g>
			<polyline fill="#747678" points="465.958,545.429 465.958,545.429 465.958,552.619 397.513,592.101 465.958,552.619 
				465.958,545.429 			"/>
			<g>
				<polyline fill="#A4DAE7" points="462.609,543.498 394.165,583.021 394.18,590.132 397.513,592.101 465.958,552.619 
					465.958,545.429 462.609,543.498 				"/>
				<polyline fill="#D3ECF3" points="394.166,583.021 394.18,590.132 397.513,592.101 397.513,584.944 394.166,583.021 				"/>
				<polyline fill="#D3ECF3" points="462.609,543.498 462.609,543.498 394.166,583.021 397.513,584.944 465.958,545.429 
					462.609,543.498 				"/>
			</g>
			<path fill="#E5BDC5" d="M555.6,598.229c0,1.771-0.569,3.05-1.54,3.8l-0.021,0.021l-0.75,0.43l-0.03,0.021l-8.33,4.81
				c0.99-0.75,1.57-2.04,1.57-3.819c0-2.359-1.04-5.101-2.7-7.51l-0.04-0.07c-1.39-2.029-3.229-3.819-5.22-4.979
				c-2.311-1.351-4.39-1.569-5.84-0.83l9.35-5.359c1.432-0.609,3.41-0.34,5.591,0.931c2,1.159,3.829,2.949,5.221,4.979l0.05,0.069
				C554.56,593.128,555.6,595.867,555.6,598.229z"/>
			<polygon fill="#A7BAC9" points="544.908,607.333 544.932,607.31 544.44,607.594 			"/>
			<polygon fill="#A7BAC9" points="532.658,590.117 532.322,590.308 532.262,590.346 532.702,590.094 532.681,590.102 			"/>
			<polygon fill="#A7BAC9" points="544.153,607.76 544.44,607.594 544.184,607.737 			"/>
			<polygon fill="#C8858F" points="540.113,585.808 541.263,585.146 541.133,585.257 540.354,585.707 			"/>
			<polygon fill="#C8858F" points="552.363,602.997 553.613,602.277 552.343,603.018 			"/>
			<polygon fill="#A7BAC9" points="552.316,603.044 552.34,603.021 551.849,603.305 			"/>
			<polygon fill="#A7BAC9" points="540.066,585.828 539.73,586.019 539.67,586.057 540.11,585.805 540.09,585.813 			"/>
			<polygon fill="#A7BAC9" points="551.563,603.471 551.849,603.305 551.592,603.448 			"/>
			<polyline fill="#CF3A52" points="253.847,616.934 303.691,588.229 353.411,616.934 303.635,645.667 253.847,616.934 			"/>
			<polyline fill="#F6678A" points="303.691,588.229 253.847,616.934 303.635,645.667 353.411,616.934 303.691,588.229 			"/>
			<polyline fill="#CF3A52" points="253.847,616.934 253.847,624.119 303.664,652.881 353.411,624.119 353.411,616.934 
				303.635,645.667 253.847,616.934 			"/>
			<polygon fill="#FFFFFF" points="317.493,609.697 313.83,617.16 322.512,624.107 308.959,623.277 301.731,629.492 
				297.019,621.517 283.87,618.411 294.509,614.313 293.61,606.178 304.899,611.619 			"/>
			<polyline fill="#E3516E" points="253.847,616.934 253.847,624.119 303.664,652.881 303.635,645.667 253.847,616.934 			"/>
			<polyline fill="#446CA9" points="48.792,532.832 98.637,504.126 148.356,532.832 98.581,561.565 48.792,532.832 			"/>
			<polyline opacity="0.5" fill="#446CA9" enable-background="new    " points="98.637,504.126 48.792,532.832 98.581,561.565 
				148.356,532.832 98.637,504.126 			"/>
			<polyline fill="#1E428A" points="48.792,532.832 48.792,540.018 98.609,568.779 148.356,540.018 148.356,532.832 98.581,561.565 
				48.792,532.832 			"/>
			<polyline opacity="0.25" fill="#959BC4" enable-background="new    " points="48.792,532.832 48.792,540.018 98.609,568.779 
				98.581,561.565 48.792,532.832 			"/>
			<polyline fill="#E7E9EA" points="284.958,491.147 278.731,494.741 365.856,545.038 278.735,494.741 284.96,491.148 
				284.958,491.147 			"/>
			<polyline fill="#AFB6BB" points="284.96,491.148 278.735,494.741 365.856,545.038 365.854,537.851 284.96,491.148 			"/>
			<polyline fill="#AFB6BB" points="278.731,487.553 278.731,494.741 284.958,491.147 278.731,487.553 			"/>
			<polyline fill="#543E36" points="293.938,321.108 300.109,317.476 306.359,321.109 287.958,403.939 281.756,407.554 
				300.188,324.741 293.938,321.108 			"/>
			<polyline fill="#72594B" points="291.242,341.04 291.242,348.226 328.588,369.783 328.555,362.579 291.242,341.04 			"/>
			<polyline fill="#543E36" points="291.242,341.04 297.4,337.485 334.808,359.003 334.808,366.189 328.588,369.783 
				328.555,362.579 291.242,341.04 			"/>
			<polyline fill="#FFFFFE" points="302.138,340.205 302.133,340.208 334.707,358.945 302.138,340.205 			"/>
			<polyline fill="#D2CFCB" points="302.138,340.205 302.133,340.208 334.707,358.945 302.138,340.205 			"/>
			<polyline fill="#B19380" points="295.958,343.763 295.955,343.765 328.555,362.579 295.958,343.763 			"/>
			<polyline fill="#A08171" points="302.133,340.208 295.958,343.763 328.555,362.579 328.588,369.783 332.842,367.325 
				334.707,358.945 302.133,340.208 			"/>
			<polyline fill="#72594B" points="285.576,366.395 285.576,373.58 322.922,395.139 322.888,387.934 285.576,366.395 			"/>
			<polyline fill="#543E36" points="285.576,366.395 291.733,362.839 329.141,384.357 329.141,391.543 322.922,395.139 
				322.888,387.934 285.576,366.395 			"/>
			<polyline fill="#FFFFFE" points="296.483,365.564 296.482,365.57 329.061,384.313 329.063,384.313 296.483,365.564 			"/>
			<polyline fill="#FFFFFF" points="296.483,365.564 296.482,365.57 329.061,384.313 329.063,384.313 296.483,365.564 			"/>
			<polyline fill="#A08171" points="296.479,365.563 296.473,365.564 296.482,365.57 296.483,365.564 296.479,365.563 			"/>
			<polyline fill="#A08171" points="296.473,365.564 290.316,369.104 322.888,387.934 322.922,395.139 327.203,392.663 
				329.061,384.313 296.482,365.57 296.473,365.564 			"/>
			<polyline fill="#543E36" points="331.265,342.699 337.436,339.066 343.686,342.7 325.285,425.53 319.083,429.145 
				337.515,346.332 331.265,342.699 			"/>
			<polyline fill="#72594B" points="275.527,403.932 281.756,407.554 300.188,324.741 293.938,321.108 275.527,403.932 			"/>
			<polyline fill="#A08171" points="294.204,320.956 293.945,321.108 294.204,321.258 294.204,320.956 			"/>
			<polyline fill="#A08171" points="337.436,339.066 332.157,342.174 331.265,342.699 337.515,346.332 343.686,342.7 
				337.436,339.066 			"/>
			<polyline fill="#543E36" points="282.643,371.863 288.814,368.23 295.063,371.863 262.547,518.308 256.345,521.922 
				288.893,375.496 282.643,371.863 			"/>
			<polyline fill="#72594B" points="279.947,391.794 279.947,398.979 317.293,420.537 317.26,413.333 279.947,391.794 			"/>
			<polyline fill="#72594B" points="273.346,445.434 270.284,450.861 307.63,472.419 307.597,465.215 273.346,445.434 			"/>
			<polyline fill="#72594B" points="267.68,470.934 264.065,476.063 301.411,497.619 301.377,490.415 267.68,470.934 			"/>
			<polyline fill="#72594B" points="279.022,419.864 277.638,426.268 311.627,445.892 311.593,438.688 279.022,419.864 			"/>
			<polyline fill="#72594B" points="262.013,496.351 257.827,501.147 295.173,522.705 295.139,515.501 262.013,496.351 			"/>
			<polyline fill="#543E36" points="262.013,496.351 268.138,492.768 301.392,511.926 301.392,519.11 295.173,522.705 
				295.139,515.501 262.013,496.351 			"/>
			<polyline fill="#543E36" points="279.947,391.794 286.105,388.239 323.512,409.758 323.512,416.943 317.293,420.537 
				317.26,413.333 279.947,391.794 			"/>
			<polyline fill="#543E36" points="279.022,419.864 285.18,416.309 317.846,435.112 317.846,442.297 311.627,445.892 
				311.593,438.688 279.022,419.864 			"/>
			<polyline fill="#543E36" points="273.346,445.434 279.534,441.871 313.849,461.64 313.849,468.824 307.63,472.419 
				307.597,465.215 273.346,445.434 			"/>
			<polyline fill="#543E36" points="267.68,470.934 273.847,467.393 307.63,486.84 307.63,494.025 301.411,497.619 301.377,490.415 
				267.68,470.934 			"/>
			<polyline fill="#A08171" points="290.826,390.955 284.635,394.499 317.26,413.333 317.293,420.537 323.512,416.943 
				323.512,409.758 290.826,390.955 			"/>
			<polyline fill="#A08171" points="285.18,416.309 279.022,419.864 311.593,438.688 311.627,445.892 317.846,442.297 
				317.846,435.112 315.972,434.033 285.18,416.309 			"/>
			<polyline fill="#A08171" points="279.534,441.871 279.517,441.882 273.346,445.434 307.597,465.215 307.63,472.419 
				313.849,468.824 313.849,463.567 313.849,461.64 279.534,441.871 			"/>
			<polyline fill="#A08171" points="273.847,467.393 267.68,470.934 301.377,490.415 301.411,497.619 307.63,494.025 307.63,486.84 
				293.781,478.867 273.847,467.393 			"/>
			<polyline fill="#A08171" points="268.138,492.768 262.013,496.351 295.139,515.501 295.173,522.705 301.392,519.11 
				301.392,511.926 268.138,492.768 			"/>
			<polygon fill="#543E36" points="319.97,393.453 326.141,389.82 332.39,393.454 299.874,539.896 293.671,543.512 326.219,397.086 
							"/>
			<polygon fill="#72594B" points="250.115,518.299 256.375,521.922 292.563,358.932 282.643,371.863 			"/>
			<polygon fill="#72594B" points="286.678,367.003 286.678,374.189 324.024,395.746 323.991,388.542 			"/>
			<polygon fill="#72594B" points="287.442,539.89 293.671,543.512 331.845,371.594 319.97,393.453 			"/>
			<polygon fill="#543E36" points="289.384,391.766 290.826,390.955 291.11,389.756 286.1,388.084 285.762,389.609 			"/>
			<polygon fill="#72594B" points="312.854,425.522 319.083,429.145 337.515,346.332 331.265,342.699 			"/>
			<g>
				<g opacity="0.2">
					<circle fill="#212121" cx="320.776" cy="274.232" r="40.885"/>
					<g id="_x35__3_">
						<path fill="#212121" d="M320.776,240.985c-18.229,0-33.06,14.868-33.06,33.247c0,18.335,14.782,33.246,33.06,33.246
							c18.23,0,33.06-14.864,33.06-33.246C353.836,255.853,339.007,240.985,320.776,240.985 M329.37,255.615
							c3.308,0,5.952,2.707,5.952,5.986c0,1.09-0.896,1.994-1.984,1.994c-1.085,0-1.981-0.904-1.981-1.994
							c0-1.095-0.896-1.996-1.985-1.996c-1.085,0-1.981,0.901-1.981,1.996c0,1.09-0.896,1.994-1.982,1.994
							c-1.088,0-1.984-0.904-1.984-1.994C323.421,258.322,326.113,255.615,329.37,255.615 M312.133,255.615
							c3.307,0,5.95,2.707,5.95,5.986c0,1.09-0.897,1.994-1.982,1.994c-1.086,0-1.981-0.904-1.981-1.994
							c0-1.095-0.898-1.996-1.985-1.996c-1.086,0-1.983,0.901-1.983,1.996c0,1.09-0.896,1.994-1.984,1.994
							c-1.085,0-1.984-0.904-1.984-1.994C306.182,258.322,308.875,255.615,312.133,255.615 M320.776,294.275
							c-11.665,0-21.111-9.499-21.111-21.23h42.174C341.889,284.776,332.441,294.275,320.776,294.275"/>
					</g>
				</g>
				<g>
					<path fill="#FFFFFF" stroke="#FFE33D" stroke-width="2.9136" stroke-miterlimit="10" d="M353.881,268.406
						c0,21.174-17.163,38.337-38.338,38.337c-21.173,0-38.336-17.163-38.336-38.337c0-21.176,17.163-38.339,38.336-38.339
						C336.718,230.067,353.881,247.23,353.881,268.406z"/>
					<path id="_x33__1_" fill="none" stroke="#FFE33D" stroke-width="2.9136" stroke-miterlimit="10" d="M315.542,237.456
						c-17.079,0-30.977,13.851-30.977,30.977c0,17.081,13.852,30.974,30.977,30.974c17.081,0,30.976-13.85,30.976-30.974
						C346.519,251.307,332.623,237.456,315.542,237.456 M323.287,254.978c2.036,0,3.719,1.684,3.719,3.72
						c0,2.034-1.683,3.715-3.719,3.715c-2.034,0-3.716-1.681-3.716-3.715C319.571,256.661,321.253,254.978,323.287,254.978
						 M307.799,254.978c2.036,0,3.717,1.684,3.717,3.72c0,2.034-1.681,3.715-3.717,3.715c-2.034,0-3.717-1.681-3.717-3.715
						C304.082,256.661,305.719,254.978,307.799,254.978 M325.854,279.938h-20.665c-1.018,0-1.858-0.84-1.858-1.86
						c0-1.016,0.84-1.856,1.858-1.856h20.665c1.019,0,1.858,0.84,1.858,1.856C327.711,279.098,326.871,279.938,325.854,279.938"/>
				</g>
			</g>
			<polyline fill="#008FBE" points="291.982,287.362 292.979,286.762 299.177,283.154 300.417,283.87 306.685,287.492 
				300.417,291.05 294.254,287.493 294.252,287.495 293.963,287.329 292.33,288.087 291.982,287.362 			"/>
			<path fill="#008FBE" d="M305.654,286.896l1.031,0.596l0,0L305.654,286.896 M299.177,283.154l-6.198,3.608l-0.997,0.6l0.348,0.725
				l1.634-0.758l0.289,0.166l0.002-0.001l6.148,3.548l0.011-7.167l4.407,2.545l0.003-0.003l-4.406-2.546L299.177,283.154"/>
			<polyline fill="#00C1DE" points="312.863,298.241 312.863,341.354 294.19,330.592 294.252,287.495 312.863,298.241 			"/>
			<polyline fill="#00C1DE" points="319.023,294.621 319.023,337.733 300.351,326.972 300.413,283.875 319.023,294.621 			"/>
			<polygon fill="#55565A" points="312.863,341.352 312.863,384.465 303.254,378.939 303.254,335.827 			"/>
			<polygon fill="#55565A" points="303.254,335.826 303.254,378.939 294.19,373.658 294.19,330.545 			"/>
			<polyline fill="#008FBE" points="319.027,294.625 319.027,337.735 312.867,334.175 312.867,298.245 319.027,294.625 			"/>
			<polygon fill="#008FBE" points="312.827,334.185 312.867,334.205 319.027,337.735 312.867,341.355 			"/>
			<polygon fill="#342E1F" points="301.545,377.948 304.962,379.936 304.962,336.823 301.545,334.836 			"/>
			<path fill="#00C1DE" d="M312.863,298.241l11.321,9.207c0.646,0.524,1.547,0.595,2.266,0.179l11.235-6.514v4.154l-11.242,6.507
				c-0.716,0.414-1.612,0.345-2.257-0.173l-11.318-9.113L312.863,298.241"/>
			<polyline fill="#008FBE" points="306.685,287.492 319.027,294.625 312.867,298.245 300.417,291.05 306.685,287.492 			"/>
			<path fill="#008FBE" d="M331.394,297.561l6.292,3.552l-11.235,6.513c-0.719,0.417-1.62,0.346-2.266-0.179l-11.321-9.207
				l6.164-3.616l5.109,5.353c0.637,0.667,1.646,0.813,2.444,0.353L331.394,297.561"/>
			<polyline fill="#008FBE" points="304.823,286.416 304.82,286.419 306.681,287.494 306.685,287.492 305.654,286.896 
				304.823,286.416 			"/>
			<polyline fill="#6FD1E6" points="304.82,286.419 300.417,291.05 306.681,287.494 304.82,286.419 			"/>
			<polyline fill="#FFFFFE" points="304.82,286.419 300.417,291.05 306.681,287.494 304.82,286.419 			"/>
			<polyline fill="#008FBE" points="306.685,287.492 306.681,287.494 300.417,291.05 312.867,298.245 312.868,298.245 
				312.863,298.241 319.027,294.625 306.685,287.492 			"/>
			<path fill="#008FBE" d="M319.027,294.625L319.027,294.625l-6.164,3.616l11.321,9.207c0.365,0.297,0.813,0.449,1.263,0.449
				c0.345,0,0.69-0.089,1.003-0.27l11.235-6.513l-6.292-3.552l-4.813,2.77c-0.313,0.18-0.655,0.267-0.997,0.267
				c-0.533,0-1.06-0.213-1.447-0.619L319.027,294.625"/>
			<polygon fill="#F0D0B4" points="334.691,295.733 331.47,297.538 337.715,301.144 340.982,299.285 			"/>
			<polygon fill="#F0D0B4" points="337.717,301.145 340.982,299.285 340.982,303.439 337.717,305.292 			"/>
			<polygon fill="#F0D0B4" points="294.197,330.593 291.004,328.803 291.004,325.586 294.19,327.341 			"/>
			<polygon fill="#342E1F" points="317.429,376.466 323.679,372.9 317.429,369.209 			"/>
			<path fill="#342E1F" d="M320.432,372.895l-7.568,4.387v7.184l12.412-7.204v-1.575C325.274,373.2,322.582,371.648,320.432,372.895
				z"/>
			<polygon fill="#342E1F" points="319.023,337.733 319.023,380.909 312.863,384.465 312.863,341.352 			"/>
			<path fill="#222222" d="M317.81,275.845l-9.949-5.689l-7.625,4.219c-1.264,0.699-2.052,2.025-2.063,3.469l-0.09,11.834
				l10.305,5.979l5.911-3.398c2.171-1.249,3.511-3.563,3.511-6.068V275.845z"/>
			<path fill="#F0D0B4" d="M317.81,278.268l-5.259,3.067c-1.229,0.717-1.984,2.033-1.984,3.456v9.636l3.747-2.165
				c2.163-1.25,3.497-3.561,3.497-6.061L317.81,278.268L317.81,278.268z"/>
			<path fill="#222222" d="M309.799,269.006l9.935,5.731v0.172c0,1.381-0.732,2.659-1.924,3.357v-2.423l-9.949-5.689
				L309.799,269.006z"/>
			<path fill="#00C1DE" d="M291.004,325.618l3.248,1.821v-39.944l-0.239-0.14c-1.333-0.779-3.009,0.183-3.009,1.727V325.618
				L291.004,325.618z"/>
			<polyline fill="#5CD2D2" points="18.013,315.517 68.013,286.767 74.068,290.219 24.388,319.017 18.013,315.517 			"/>
			<polyline fill="#9FE5E5" points="68.013,286.767 18.013,315.517 24.388,319.017 74.068,290.219 68.013,286.767 			"/>
			<polygon fill="#CF3A52" points="173.511,369.376 192.18,358.598 210.848,369.376 192.18,380.154 			"/>
			<polygon fill="#FFFFFF" points="173.511,369.376 192.18,358.598 210.848,369.376 192.18,380.154 			"/>
			<polygon fill="#D3D1D3" points="192.18,380.154 210.848,369.376 210.848,390.934 192.18,401.711 			"/>
			<polygon fill="#E6E7E8" points="173.511,390.934 173.511,369.376 192.18,380.154 192.18,401.711 			"/>
			<polyline fill="#77BC1F" points="447.345,599.156 447.345,577.6 466.014,588.378 466.014,609.934 447.345,599.156 			"/>
			<polyline opacity="0.5" fill="#BDE087" enable-background="new    " points="447.345,577.6 447.345,599.156 466.014,609.934 
				466.014,588.378 447.345,577.6 			"/>
			<polyline fill="#A4D55D" points="447.345,577.6 466.014,566.821 484.682,577.6 466.014,588.378 447.345,577.6 			"/>
			<polyline fill="#BDE087" points="466.014,566.821 447.345,577.6 466.014,588.378 484.682,577.6 466.014,566.821 			"/>
			<polygon fill="#00A19B" points="466.013,588.378 484.682,577.6 484.682,599.156 466.013,609.934 			"/>
			<polygon fill="#77BC1F" points="466.013,588.378 484.682,577.6 484.682,599.156 466.013,609.934 			"/>
			<polygon fill="#77BC1F" points="466.013,588.378 484.682,577.6 484.682,599.156 466.013,609.934 			"/>
			<polyline fill="#FD5373" points="553.029,653.153 602.875,624.447 652.594,653.153 602.818,681.887 553.029,653.153 			"/>
			<polyline fill="#CF0A2C" points="553.029,653.153 553.029,660.339 602.847,689.101 652.594,660.339 652.594,653.153 
				602.818,681.887 553.029,653.153 			"/>
			<polyline fill="#F2C06B" points="136.346,437.434 186.192,408.729 235.911,437.434 186.135,466.167 136.346,437.434 			"/>
			<polyline fill="#F8DAA9" points="186.192,408.729 136.346,437.434 186.135,466.167 235.911,437.434 186.192,408.729 			"/>
			<polyline fill="#F2C06B" points="136.346,437.434 136.346,444.619 186.164,473.381 235.911,444.619 235.911,437.434 
				186.135,466.167 136.346,437.434 			"/>
			<polyline fill="#C69F59" points="235.911,437.434 235.911,437.434 186.135,466.167 186.164,473.381 235.911,444.619 
				235.911,437.434 			"/>
			<polyline fill="#F3F4F4" points="552.995,656.914 552.995,660.339 602.813,689.101 602.813,689.08 553.029,660.339 
				553.029,656.934 552.995,656.914 			"/>
			<polyline fill="#E4615B" points="553.029,656.934 553.029,660.339 602.813,689.08 602.784,681.956 599.597,683.799 
				599.563,683.779 599.563,683.799 553.029,656.934 			"/>
			<polyline fill="#446CA9" points="549.779,647.852 599.625,619.146 649.344,647.852 599.568,676.585 549.779,647.852 			"/>
			<polyline fill="#768EBE" points="556.1,644.212 549.779,647.852 599.568,676.585 649.344,647.852 649.286,647.818 
				605.847,672.934 556.1,644.212 			"/>
			<polyline fill="#1E428A" points="549.779,647.852 549.779,655.037 599.597,683.799 649.344,655.037 649.344,647.852 
				599.568,676.585 549.779,647.852 			"/>
			<polyline fill="#1CCFC9" points="556.029,636.986 605.875,608.28 655.594,636.986 605.818,665.719 556.029,636.986 			"/>
			<polyline fill="#8AE1DB" points="605.875,608.28 556.029,636.986 605.818,665.719 655.594,636.986 605.875,608.28 			"/>
			<polyline fill="#00A19B" points="556.029,636.986 556.029,644.171 605.847,672.934 655.594,644.172 655.594,636.986 
				605.818,665.719 556.029,636.986 			"/>
			<path fill="#FFFFFF" d="M624.503,640.26c-0.144-1.601-1.364-3.104-3.209-4.249c-1.845-1.144-4.313-1.926-6.992-2.075l-2.854-0.15
				l-0.154-1.714c-0.145-1.602-1.365-3.105-3.21-4.249c-1.845-1.145-4.313-1.927-6.992-2.076c-5.342-0.274-9.44,2.1-9.152,5.301
				l0.155,1.729l0.132,1.455l0.191,2.117l0.726,8.053l13.393,0.7l3.539,0.181l2.423,0.128l2.854,0.15
				C620.694,645.852,624.794,643.479,624.503,640.26z"/>
			<polyline fill="#00C4BC" points="556.029,636.986 556.029,644.171 605.847,672.934 605.818,665.719 556.029,636.986 			"/>
			<polyline fill="#F3F4F4" points="549.744,647.852 549.744,655.037 552.995,656.914 552.995,656.894 549.779,655.037 
				549.779,647.872 549.744,647.852 			"/>
			<polyline fill="#EDEEEE" points="552.995,656.894 552.995,656.914 553.029,656.934 553.029,656.914 552.995,656.894 			"/>
			<polyline fill="#F18B81" points="553.029,656.914 553.029,656.934 599.563,683.799 599.563,683.779 553.029,656.914 			"/>
			<polyline fill="#FFFFFF" points="553.029,656.914 553.029,656.934 599.563,683.799 599.563,683.779 553.029,656.914 			"/>
			<polyline fill="#5E6CA6" points="549.779,647.872 549.779,655.037 552.995,656.894 553.029,656.914 599.563,683.779 
				599.533,676.585 549.779,647.872 			"/>
		</g>
		<polygon fill="#72594B" points="319.083,429.145 312.854,425.522 331.265,342.699 337.515,346.332 		"/>
	</g>
	<g>
		<g opacity="0.2">
			<circle fill="#212121" cx="410.458" cy="318.74" r="41.515"/>
			<g id="_x35__7_">
				<path fill="#212121" d="M410.457,284.981c-18.509,0-33.567,15.096-33.567,33.759c0,18.615,15.011,33.756,33.567,33.756
					c18.511,0,33.568-15.092,33.568-33.756C444.025,300.077,428.968,284.981,410.457,284.981 M419.185,299.835
					c3.357,0,6.042,2.749,6.042,6.078c0,1.108-0.909,2.025-2.014,2.025c-1.104,0-2.013-0.917-2.013-2.025
					c0-1.11-0.911-2.026-2.017-2.026c-1.103,0-2.013,0.916-2.013,2.026c0,1.108-0.912,2.025-2.014,2.025
					c-1.105,0-2.016-0.917-2.016-2.025C413.144,302.584,415.878,299.835,419.185,299.835 M401.683,299.835
					c3.355,0,6.041,2.749,6.041,6.078c0,1.108-0.911,2.025-2.014,2.025s-2.013-0.917-2.013-2.025c0-1.11-0.912-2.026-2.016-2.026
					s-2.016,0.916-2.016,2.026c0,1.108-0.909,2.025-2.014,2.025c-1.104,0-2.016-0.917-2.016-2.025
					C395.639,302.584,398.372,299.835,401.683,299.835 M410.457,339.091c-11.844,0-21.436-9.646-21.436-21.557h42.823
					C431.895,329.445,422.302,339.091,410.457,339.091"/>
			</g>
		</g>
		<g>
			<circle fill="#FFFFFF" stroke="#63C7CC" stroke-width="2.968" stroke-miterlimit="10" cx="404.347" cy="314.15" r="39.451"/>
			<path id="_x34__1_" fill="#FFFFFF" stroke="#63C7CC" stroke-width="2.968" stroke-miterlimit="10" d="M404.348,281.915
				c-17.578,0-31.876,14.251-31.876,31.872c0,17.577,14.254,31.875,31.876,31.875c17.576,0,31.873-14.252,31.873-31.875
				C436.221,296.166,421.924,281.915,404.348,281.915 M412.043,299.946c2.095,0,3.825,1.728,3.825,3.823
				c0,2.096-1.73,3.828-3.825,3.828s-3.825-1.732-3.825-3.828C408.218,301.63,409.902,299.946,412.043,299.946 M396.105,299.946
				c2.094,0,3.824,1.728,3.824,3.823c0,2.096-1.73,3.828-3.824,3.828c-2.097,0-3.825-1.732-3.825-3.828
				C392.28,301.63,393.963,299.946,396.105,299.946 M426.021,317.111c-2.096,10.245-11.248,17.715-21.721,17.715
				c-10.339,0-19.217-7.015-21.583-17.031c-0.229-1.047,0.409-2.048,1.411-2.324c1-0.228,2.05,0.411,2.322,1.412
				c1.958,8.288,9.334,14.117,17.85,14.117c8.697,0,16.256-6.148,17.985-14.665c0.228-1.046,1.229-1.685,2.278-1.502
				C425.565,315.063,426.25,316.111,426.021,317.111"/>
		</g>
	</g>
	<g>
		<g opacity="0.2">
			<circle fill="#212121" cx="225.025" cy="217.71" r="40.903"/>
			<g id="_x35__6_">
				<path fill="#212121" d="M225.024,184.45c-18.236,0-33.073,14.873-33.073,33.261c0,18.342,14.789,33.26,33.073,33.26
					c18.238,0,33.074-14.87,33.074-33.26C258.099,199.323,243.263,184.45,225.024,184.45 M233.623,199.085
					c3.309,0,5.954,2.708,5.954,5.988c0,1.091-0.897,1.995-1.985,1.995c-1.086,0-1.983-0.904-1.983-1.995
					c0-1.094-0.896-1.996-1.985-1.996c-1.086,0-1.983,0.902-1.983,1.996c0,1.091-0.897,1.995-1.983,1.995
					c-1.089,0-1.985-0.904-1.985-1.995C227.671,201.793,230.364,199.085,233.623,199.085 M216.379,199.085
					c3.307,0,5.952,2.708,5.952,5.988c0,1.091-0.898,1.995-1.983,1.995c-1.088,0-1.983-0.904-1.983-1.995
					c0-1.094-0.898-1.996-1.985-1.996s-1.984,0.902-1.984,1.996c0,1.091-0.897,1.995-1.985,1.995c-1.086,0-1.984-0.904-1.984-1.995
					C210.425,201.793,213.118,199.085,216.379,199.085 M225.024,237.761c-11.67,0-21.12-9.502-21.12-21.238h42.193
					C246.146,228.259,236.695,237.761,225.024,237.761"/>
			</g>
		</g>
		<g>
			<circle fill="#FFFFFF" stroke="#FFBC00" stroke-width="2.9079" stroke-miterlimit="10" cx="220.387" cy="213.068" r="38.178"/>
			<path id="_x32__1_" fill="#FFFFFF" stroke="#FFBC00" stroke-width="2.9079" stroke-miterlimit="10" d="M220.109,182.342
				c-17.011,0-30.847,13.796-30.847,30.849c0,17.009,13.793,30.846,30.847,30.846c17.008,0,30.845-13.793,30.845-30.846
				C250.954,196.138,237.117,182.342,220.109,182.342 M227.556,199.792c2.024,0,3.703,1.674,3.703,3.704
				c0,2.026-1.679,3.7-3.703,3.7c-2.027,0-3.701-1.674-3.701-3.7C223.854,201.466,225.483,199.792,227.556,199.792 M212.134,199.792
				c2.024,0,3.7,1.674,3.7,3.704c0,2.026-1.676,3.7-3.7,3.7c-2.029,0-3.701-1.674-3.701-3.7
				C208.433,201.466,210.062,199.792,212.134,199.792 M236.148,225.088c-0.705,0.748-1.852,0.836-2.601,0.131
				c-3.655-3.305-8.416-5.155-13.396-5.155s-9.74,1.851-13.438,5.201c-0.354,0.307-0.795,0.483-1.234,0.483
				c-0.487,0-1.016-0.22-1.367-0.616c-0.705-0.751-0.617-1.939,0.133-2.603c4.361-3.963,10.002-6.124,15.907-6.124
				c5.862,0,11.501,2.161,15.865,6.124C236.81,223.193,236.854,224.337,236.148,225.088"/>
		</g>
	</g>
	<g>
		<g opacity="0.2">
			<ellipse fill="#212121" cx="499.243" cy="391.02" rx="41.373" ry="41.514"/>
			<g id="_x35__2_">
				<path fill="#212121" d="M499.243,357.264c-18.447,0-33.453,15.096-33.453,33.756c0,18.615,14.959,33.757,33.453,33.757
					c18.447,0,33.453-15.093,33.453-33.757C532.696,372.357,517.69,357.264,499.243,357.264 M507.94,372.116
					c3.347,0,6.021,2.749,6.021,6.079c0,1.106-0.907,2.023-2.009,2.023c-1.098,0-2.005-0.917-2.005-2.023
					c0-1.111-0.908-2.027-2.009-2.027c-1.099,0-2.007,0.916-2.007,2.027c0,1.106-0.907,2.023-2.007,2.023
					c-1.102,0-2.009-0.917-2.009-2.023C501.919,374.865,504.644,372.116,507.94,372.116 M490.497,372.116
					c3.346,0,6.021,2.749,6.021,6.079c0,1.106-0.907,2.023-2.006,2.023c-1.101,0-2.008-0.917-2.008-2.023
					c0-1.111-0.908-2.027-2.008-2.027s-2.007,0.916-2.007,2.027c0,1.106-0.907,2.023-2.007,2.023c-1.101,0-2.009-0.917-2.009-2.023
					C484.476,374.865,487.2,372.116,490.497,372.116 M499.243,411.369c-11.805,0-21.363-9.646-21.363-21.555h42.678
					C520.606,401.725,511.048,411.369,499.243,411.369"/>
			</g>
		</g>
		<g>
			
				<ellipse fill="#FFFFFF" stroke="#64A7CC" stroke-width="3.1154" stroke-miterlimit="10" cx="491.968" cy="383.613" rx="41.373" ry="41.514"/>
			<g id="_x35__1_">
				<path fill="none" stroke="#64A7CC" stroke-width="3.1154" stroke-miterlimit="10" d="M491.969,349.856
					c-18.445,0-33.453,15.096-33.453,33.757c0,18.614,14.958,33.756,33.453,33.756c18.446,0,33.454-15.093,33.454-33.756
					C525.423,364.952,510.415,349.856,491.969,349.856 M500.666,364.71c3.347,0,6.021,2.749,6.021,6.078
					c0,1.108-0.906,2.024-2.007,2.024c-1.1,0-2.007-0.916-2.007-2.024c0-1.11-0.907-2.026-2.008-2.026
					c-1.099,0-2.005,0.916-2.005,2.026c0,1.108-0.908,2.024-2.008,2.024c-1.103,0-2.009-0.916-2.009-2.024
					C494.646,367.458,497.37,364.71,500.666,364.71 M483.224,364.71c3.346,0,6.021,2.749,6.021,6.078
					c0,1.108-0.908,2.024-2.006,2.024c-1.101,0-2.006-0.916-2.006-2.024c0-1.11-0.909-2.026-2.009-2.026s-2.008,0.916-2.008,2.026
					c0,1.108-0.907,2.024-2.008,2.024c-1.098,0-2.008-0.916-2.008-2.024C477.2,367.458,479.925,364.71,483.224,364.71
					 M491.969,403.963c-11.804,0-21.363-9.645-21.363-21.555h42.68C513.333,394.318,503.772,403.963,491.969,403.963"/>
			</g>
		</g>
	</g>
	<circle fill="#93E3ED" cx="625.491" cy="576.629" r="5.875"/>
	<g>
		<path fill="#93E3ED" d="M405.505,114.847c-2.925,0-5.306-2.379-5.306-5.305s2.381-5.305,5.306-5.305
			c2.926,0,5.308,2.379,5.308,5.305S408.431,114.847,405.505,114.847z M405.505,107.041c-1.379,0-2.502,1.123-2.502,2.502
			c0,1.38,1.123,2.502,2.502,2.502c1.38,0,2.503-1.122,2.503-2.502C408.008,108.164,406.885,107.041,405.505,107.041z"/>
	</g>
	<g>
		<path fill="#93E3ED" d="M624.518,520.179c-4.324,0-7.844-3.519-7.844-7.845c0-4.325,3.52-7.843,7.844-7.843
			c4.325,0,7.845,3.518,7.845,7.843C632.361,516.66,628.843,520.179,624.518,520.179z M624.518,508.635
			c-2.039,0-3.699,1.659-3.699,3.699c0,2.041,1.659,3.701,3.699,3.701s3.7-1.66,3.7-3.701
			C628.218,510.294,626.558,508.635,624.518,508.635z"/>
	</g>
	<path fill="#FFBC00" d="M480.647,196.708h-3.015v-3.014c0-0.717-0.58-1.297-1.297-1.297c-0.715,0-1.296,0.58-1.296,1.297v3.014
		h-3.015c-0.716,0-1.297,0.58-1.297,1.297c0,0.716,0.581,1.296,1.297,1.296h3.015v3.015c0,0.716,0.581,1.296,1.296,1.296
		c0.717,0,1.297-0.58,1.297-1.296v-3.015h3.015c0.717,0,1.297-0.58,1.297-1.296C481.944,197.289,481.364,196.708,480.647,196.708z"
		/>
	<path fill="#424242" d="M56.578,228.22h-1.854v-1.855c0-0.44-0.358-0.798-0.798-0.798c-0.442,0-0.799,0.357-0.799,0.798v1.855
		H51.27c-0.439,0-0.798,0.356-0.798,0.798c0,0.44,0.358,0.798,0.798,0.798h1.856v1.855c0,0.441,0.356,0.798,0.799,0.798
		c0.439,0,0.798-0.357,0.798-0.798v-1.855h1.854c0.441,0,0.798-0.358,0.798-0.798C57.375,228.577,57.019,228.22,56.578,228.22z"/>
	<circle fill="#93E3ED" cx="31.874" cy="178.378" r="6.313"/>
	<path fill="#424242" d="M318.636,93.95h-1.854v-1.855c0-0.44-0.358-0.798-0.798-0.798c-0.442,0-0.8,0.357-0.8,0.798v1.855h-1.855
		c-0.439,0-0.798,0.356-0.798,0.798c0,0.44,0.357,0.798,0.798,0.798h1.855v1.855c0,0.441,0.356,0.798,0.8,0.798
		c0.438,0,0.798-0.357,0.798-0.798v-1.855h1.854c0.441,0,0.798-0.358,0.798-0.798C319.434,94.306,319.077,93.95,318.636,93.95z"/>
	<circle fill="#93E3ED" cx="293.932" cy="44.108" r="6.313"/>
	<g>
		<polygon fill="#F16D9A" points="191.652,653.658 182.521,648.057 183.877,645.847 191.652,650.616 200.104,645.43 
			208.557,650.616 217.012,645.43 225.465,650.616 233.918,645.43 242.374,650.616 250.152,645.846 251.508,648.057 
			242.374,653.658 233.918,648.473 225.465,653.658 217.012,648.473 208.557,653.658 200.104,648.473 		"/>
	</g>
	<g>
		<polygon fill="#F16D9A" points="548.275,206.382 539.145,200.781 540.5,198.571 548.275,203.34 556.729,198.154 565.18,203.34 
			573.635,198.154 582.088,203.34 590.541,198.154 598.997,203.34 606.775,198.57 608.131,200.781 598.997,206.382 590.541,201.197 
			582.088,206.382 573.635,201.197 565.18,206.382 556.729,201.197 		"/>
	</g>
	<g>
		<polygon fill="#93E3ED" points="611.688,392.014 618.215,393.843 616.386,387.316 		"/>
		<polygon fill="#93E3ED" points="622.393,398.021 620.563,391.494 618.215,393.843 615.866,396.191 		"/>
		<polygon fill="#93E3ED" points="626.57,402.198 624.741,395.672 622.393,398.021 620.044,400.369 		"/>
	</g>
	<g>
		<path fill="#93E3ED" d="M137.701,145.21c-4.325,0-7.844-3.519-7.844-7.845c0-4.325,3.519-7.843,7.844-7.843
			c4.325,0,7.844,3.518,7.844,7.843C145.545,141.691,142.026,145.21,137.701,145.21z M137.701,133.666c-2.04,0-3.7,1.659-3.7,3.699
			c0,2.041,1.66,3.701,3.7,3.701s3.7-1.66,3.7-3.701C141.401,135.325,139.741,133.666,137.701,133.666z"/>
	</g>
	<g>
		<polygon fill="#93E3ED" points="124.872,17.045 131.398,18.874 129.569,12.348 		"/>
		<polygon fill="#93E3ED" points="135.576,23.052 133.747,16.525 131.398,18.874 129.05,21.223 		"/>
		<polygon fill="#93E3ED" points="139.754,27.229 137.925,20.703 135.576,23.052 133.228,25.4 		"/>
	</g>
	<g>
		<polygon fill="#FFBC00" points="95.068,615.764 88.292,610.697 81.514,615.764 74.736,610.697 67.958,615.764 60.42,610.131 
			61.936,608.102 67.958,612.601 74.736,607.534 81.514,612.601 88.292,607.534 95.068,612.601 101.846,607.534 108.625,612.601 
			115.404,607.534 122.182,612.601 128.961,607.534 135.742,612.601 142.52,607.534 149.299,612.601 156.08,607.535 
			162.862,612.602 168.885,608.102 170.402,610.131 162.862,615.764 156.08,610.697 149.299,615.764 142.52,610.697 
			135.742,615.764 128.961,610.697 122.182,615.764 115.404,610.697 108.625,615.764 101.846,610.697 		"/>
	</g>
	
		<rect x="104.968" y="218.163" transform="matrix(-0.7071 0.7071 -0.7071 -0.7071 347.7492 304.1241)" fill="#F16D9A" width="11.841" height="11.84"/>
	<circle fill="#F2F7F7" stroke="#FFBC00" stroke-width="4.5126" stroke-miterlimit="10" cx="108.565" cy="178.379" r="2.321"/>
</g>
</svg>
